<?xml version="1.0" encoding="UTF-8"?>
<svg width="218px" height="81px" viewBox="0 0 218 81" version="1.1" xmlns="http://www.w3.org/2000/svg" xmlns:xlink="http://www.w3.org/1999/xlink">
    <title>eikon_simple</title>
    <defs>
        <polygon id="path-1" points="0 0 42.9357798 0 42.9357798 48.9908257 0 48.9908257"></polygon>
        <polygon id="path-3" points="0 80 216.513761 80 216.513761 0 0 0"></polygon>
        <polygon id="path-5" points="0 80 216.513761 80 216.513761 0 0 0"></polygon>
        <polygon id="path-7" points="0 80 216.513761 80 216.513761 0 0 0"></polygon>
        <polygon id="path-9" points="0 80 216.513761 80 216.513761 0 0 0"></polygon>
        <polygon id="path-11" points="0 80 216.513761 80 216.513761 0 0 0"></polygon>
        <polygon id="path-13" points="0 80 216.513761 80 216.513761 0 0 0"></polygon>
    </defs>
    <g id="Page-1" stroke="none" stroke-width="1" fill="none" fill-rule="evenodd">
        <g id="Medium" transform="translate(-343.000000, -3944.000000)">
            <g id="FOOTER-Copy" transform="translate(-76.832187, 3851.054798)">
                <g id="eikon_simple" transform="translate(420.489428, 93.461451)">
                    <g id="Fill-1-Clipped" transform="translate(0.000000, 20.761593)">
                        <mask id="mask-2" fill="white">
                            <use xlink:href="#path-1"></use>
                        </mask>
                        <g id="path-1_00000042001445507911045480000000188827111244874632_"></g>
                        <path d="M32.8440367,19.6330275 C32.8440367,13.2110092 28.440367,8.99082569 22.0183486,8.99082569 C15.7798165,8.99082569 11.0091743,12.6605505 11.0091743,19.6330275 L32.8440367,19.6330275 Z M22.2018349,0 C33.9449541,0 43.1192661,9.17431193 43.1192661,20.9174312 C43.1192661,22.5688073 43.1192661,24.587156 42.5688073,27.706422 L10.6422018,27.706422 C10.6422018,34.3119266 13.9449541,39.8165138 22.3853211,39.8165138 C28.440367,39.8165138 30.6422018,37.0642202 31.9266055,33.7614679 L42.5688073,33.7614679 C41.1009174,41.8348624 33.9449541,48.9908257 22.3853211,48.9908257 C7.33944954,48.9908257 0,37.0642202 0,24.4036697 C0,10.4587156 8.0733945,0 22.2018349,0 L22.2018349,0 Z" id="Fill-1" fill="#131413" mask="url(#mask-2)"></path>
                    </g>
                    <g id="Fill-4-Clipped">
                        <mask id="mask-4" fill="white">
                            <use xlink:href="#path-3"></use>
                        </mask>
                        <g id="path-3_00000150085872863131780960000007474121170675010490_"></g>
                        <path d="M53.7614679,68.2568807 L64.9541284,68.2568807 L64.9541284,22.9357798 L53.7614679,22.9357798 L53.7614679,68.2568807 L53.7614679,68.2568807 Z M59.266055,0 C63.4862385,0 66.7889908,3.11926606 66.7889908,7.1559633 C66.7889908,11.0091743 63.4862385,14.1284404 59.266055,14.1284404 C55.2293578,14.1284404 51.9266055,11.0091743 51.9266055,7.1559633 C51.9266055,3.11926606 55.2293578,0 59.266055,0 L59.266055,0 Z" id="Fill-4" fill="#131413" mask="url(#mask-4)"></path>
                    </g>
                    <g id="Fill-6-Clipped">
                        <mask id="mask-6" fill="white">
                            <use xlink:href="#path-5"></use>
                        </mask>
                        <g id="path-3_00000013881412803445256650000004712554305429514122_"></g>
                        <polygon id="Fill-6" fill="#131413" mask="url(#mask-6)" points="75.5963303 68.2568807 75.5963303 0 86.4220183 0 86.4220183 42.9357798 103.669725 22.7522936 117.06422 22.7522936 97.7981651 45.5045872 117.06422 68.2568807 103.669725 68.2568807 86.4220183 48.2568807 86.4220183 68.2568807"></polygon>
                    </g>
                    <g id="Fill-7-Clipped">
                        <mask id="mask-8" fill="white">
                            <use xlink:href="#path-7"></use>
                        </mask>
                        <g id="path-3_00000062878665275670434170000011894802918630732977_"></g>
                        <path d="M139.266055,60 C147.706422,60 153.394495,53.2110092 153.394495,45.1376147 C153.394495,37.0642202 147.706422,30.2752294 139.266055,30.2752294 C130.825688,30.2752294 125.321101,37.0642202 125.321101,45.1376147 C125.321101,53.2110092 130.825688,60 139.266055,60 M139.266055,20.733945 C154.495413,20.733945 164.587156,31.9266055 164.587156,45.1376147 C164.587156,58.3486239 154.495413,69.7247706 139.266055,69.7247706 C124.036697,69.7247706 114.12844,58.5321101 114.12844,45.3211009 C114.12844,32.1100917 124.220183,20.733945 139.266055,20.733945" id="Fill-7" fill="#131413" mask="url(#mask-8)"></path>
                    </g>
                    <g id="Fill-8-Clipped">
                        <mask id="mask-10" fill="white">
                            <use xlink:href="#path-9"></use>
                        </mask>
                        <g id="path-3_00000146462141249995907690000000775152237751439009_"></g>
                        <path d="M170.458716,68.2568807 L170.458716,22.0183486 L181.284404,22.0183486 L181.284404,28.440367 C184.220183,23.3027523 189.541284,20.733945 196.513761,20.733945 C203.302752,20.733945 207.706422,23.1192661 210.458716,26.9724771 C212.844037,30.4587156 213.394495,34.3119266 213.394495,40.733945 L213.394495,68.2568807 L202.568807,68.2568807 L202.568807,44.4036697 C202.568807,36.5137615 200.183486,30.4587156 192.477064,30.4587156 C184.954128,30.4587156 181.284404,36.5137615 181.284404,44.4036697 L181.284404,68.2568807 L170.458716,68.2568807 Z" id="Fill-8" fill="#131413" mask="url(#mask-10)"></path>
                    </g>
                    <g id="Fill-9-Clipped">
                        <mask id="mask-12" fill="white">
                            <use xlink:href="#path-11"></use>
                        </mask>
                        <g id="path-3_00000179617424586344932120000007865450818516403332_"></g>
                        <polygon id="Fill-9" fill="#131413" mask="url(#mask-12)" points="95.5963303 75.5963303 1.46788991 75.5963303 1.46788991 80 97.7981651 80"></polygon>
                    </g>
                    <g id="Fill-10-Clipped">
                        <mask id="mask-14" fill="white">
                            <use xlink:href="#path-13"></use>
                        </mask>
                        <g id="path-3_00000039814805741734663330000000799068742066793146_"></g>
                        <polygon id="Fill-10" fill="#131413" mask="url(#mask-14)" points="99.4495413 75.5963303 101.651376 80 216.513761 80 216.513761 75.5963303"></polygon>
                    </g>
                </g>
            </g>
        </g>
    </g>
</svg>