<?xml version="1.0" encoding="utf-8"?>
<!-- Generator: Adobe Illustrator 27.5.0, SVG Export Plug-In . SVG Version: 6.00 Build 0)  -->
<svg version="1.1" id="Calque_1" xmlns="http://www.w3.org/2000/svg" xmlns:xlink="http://www.w3.org/1999/xlink" x="0px" y="0px"
	 viewBox="0 0 57.1 12.1" style="enable-background:new 0 0 57.1 12.1;" xml:space="preserve">
<g>
	<g>
		<path d="M7.4,5.9v2c0,0.4-0.3,0.7-0.7,0.7H2.1c-0.4,0-0.7,0.3-0.7,0.7v0.5c0,0.2,0.1,0.3,0.2,0.5l0.6,0.6c0.1,0.1,0.3,0.2,0.5,0.2
			H5c0.2,0,0.3-0.1,0.5-0.2L6,10.2c0.3-0.3,0.7-0.3,0.9,0l0,0c0.3,0.3,0.3,0.7,0,0.9l-0.8,0.8c-0.1,0.1-0.3,0.2-0.5,0.2H2
			c-0.2,0-0.3-0.1-0.5-0.2l-1.4-1.4C0.1,10.5,0,10.3,0,10.1V5.9c0-0.2,0.1-0.3,0.2-0.5l1.4-1.4C1.7,4,1.8,3.9,2,3.9h3.4
			c0.2,0,0.3,0.1,0.5,0.2l1.4,1.4C7.3,5.6,7.4,5.7,7.4,5.9z M6,6.6V6.4C6,6.2,5.9,6,5.8,5.9L5.2,5.3C5.1,5.2,4.9,5.2,4.7,5.2H2.6
			c-0.2,0-0.3,0.1-0.5,0.2L1.6,5.9C1.5,6,1.4,6.2,1.4,6.4v0.3c0,0.4,0.3,0.7,0.7,0.7h3.2C5.7,7.3,6,7,6,6.6z"/>
		<path d="M9.8,0.1L9.8,0.1c0.4,0,0.7,0.3,0.7,0.7v0.4c0,0.4-0.3,0.7-0.7,0.7l0,0C9.4,2,9.1,1.6,9.1,1.3V0.8
			C9.1,0.5,9.4,0.1,9.8,0.1z M9.8,3.9L9.8,3.9c0.4,0,0.7,0.3,0.7,0.7v6.8c0,0.4-0.3,0.7-0.7,0.7l0,0c-0.4,0-0.7-0.3-0.7-0.7V4.6
			C9.1,4.2,9.4,3.9,9.8,3.9z"/>
		<path d="M17.7,11.9l-2.6-2.6C14.7,8.9,14,9.2,14,9.8v1.7c0,0.4-0.3,0.6-0.6,0.6h-0.1c-0.4,0-0.6-0.3-0.6-0.6V0.6
			c0-0.4,0.3-0.6,0.6-0.6h0.1C13.7,0,14,0.3,14,0.6v5.5c0,0.6,0.7,0.9,1.1,0.5l2.5-2.5C17.7,4,17.9,3.9,18,3.9l0,0
			c0.6,0,0.9,0.7,0.5,1.1l-2.4,2.5c-0.3,0.3-0.3,0.7,0,0.9l2.7,2.7c0.4,0.4,0.1,1.1-0.5,1.1h-0.1C18,12.1,17.8,12.1,17.7,11.9z"/>
		<path d="M27.7,6.3v3.4c0,0.4-0.2,0.8-0.5,1.1l-0.8,0.8c-0.3,0.3-0.7,0.5-1.1,0.5h-2.6c-0.4,0-0.8-0.2-1.1-0.5l-0.8-0.8
			c-0.3-0.3-0.5-0.7-0.5-1.1V6.3c0-0.4,0.2-0.8,0.5-1.1l0.8-0.8c0.3-0.3,0.7-0.5,1.1-0.5h2.6c0.4,0,0.8,0.2,1.1,0.5l0.8,0.8
			C27.6,5.5,27.7,5.9,27.7,6.3z M26.3,9.3V6.8c0-0.4-0.2-0.8-0.5-1.1l0,0c-0.3-0.3-0.7-0.5-1.2-0.5h-1.3c-0.4,0-0.8,0.2-1.1,0.5l0,0
			c-0.3,0.3-0.5,0.7-0.5,1.1v2.5c0,0.4,0.2,0.8,0.5,1.1l0,0c0.3,0.3,0.7,0.5,1.1,0.5h1.3c0.4,0,0.8-0.2,1.1-0.5l0,0
			C26.2,10.1,26.3,9.7,26.3,9.3z"/>
		<path d="M36.7,5.6v6.1c0,0.3-0.2,0.5-0.5,0.5h-0.5c-0.3,0-0.5-0.2-0.5-0.5V6.1c0-0.1-0.1-0.3-0.2-0.4l-0.4-0.4
			c-0.1-0.1-0.2-0.2-0.4-0.2h-1.6c-0.1,0-0.3,0.1-0.4,0.2l-1.3,1.3c-0.1,0.1-0.2,0.2-0.2,0.4v4.7c0,0.3-0.2,0.5-0.5,0.5H30
			c-0.3,0-0.5-0.2-0.5-0.5V4.4c0-0.3,0.2-0.5,0.5-0.5h0.3c0.3,0,0.5,0.2,0.5,0.5l0,0c0,0.4,0.5,0.6,0.8,0.3L32.3,4
			c0.1-0.1,0.2-0.2,0.4-0.2H35c0.1,0,0.3,0.1,0.4,0.2l1.2,1.2C36.6,5.3,36.7,5.4,36.7,5.6z"/>
		<path d="M39.4,0.1L39.4,0.1c0.4,0,0.7,0.3,0.7,0.7v0.4c0,0.4-0.3,0.7-0.7,0.7l0,0c-0.4,0-0.7-0.3-0.7-0.7V0.8
			C38.7,0.5,39,0.1,39.4,0.1z M39.4,3.9L39.4,3.9c0.4,0,0.7,0.3,0.7,0.7v6.8c0,0.4-0.3,0.7-0.7,0.7l0,0c-0.4,0-0.7-0.3-0.7-0.7V4.6
			C38.7,4.2,39,3.9,39.4,3.9z"/>
		<path d="M48.5,11.1l-0.8,0.8c-0.1,0.1-0.3,0.2-0.5,0.2h-3.3c-0.2,0-0.3-0.1-0.5-0.2l-1.4-1.4c-0.1-0.1-0.2-0.3-0.2-0.5V5.9
			c0-0.2,0.1-0.3,0.2-0.5l1.4-1.4c0.1-0.1,0.3-0.2,0.5-0.2h3.3c0.2,0,0.3,0.1,0.5,0.2l0.8,0.8c0.3,0.3,0.3,0.7,0,0.9l0,0
			c-0.3,0.3-0.7,0.3-0.9,0L47,5.4c-0.1-0.1-0.3-0.2-0.5-0.2h-2.1c-0.2,0-0.3,0.1-0.5,0.2l-0.6,0.6c-0.1,0.1-0.2,0.3-0.2,0.5v3.3
			c0,0.2,0.1,0.3,0.2,0.5l0.6,0.6c0.1,0.1,0.3,0.2,0.5,0.2h2.1c0.2,0,0.3-0.1,0.5-0.2l0.5-0.5c0.3-0.3,0.7-0.3,0.9,0l0,0
			C48.8,10.4,48.8,10.9,48.5,11.1z"/>
		<path d="M57.1,5.6v6.1c0,0.3-0.2,0.5-0.5,0.5h-0.3c-0.3,0-0.5-0.2-0.5-0.5l0,0c0-0.4-0.5-0.6-0.8-0.3L54.3,12
			c-0.1,0.1-0.2,0.2-0.4,0.2h-2.6c-0.1,0-0.3-0.1-0.4-0.2l-1.1-1.1c-0.1-0.1-0.2-0.2-0.2-0.4V9c0-0.1,0.1-0.3,0.2-0.4l1-1
			c0.1-0.1,0.2-0.1,0.3-0.1l4.1-0.3c0.3,0,0.5-0.2,0.5-0.5V6.1c0-0.1-0.1-0.3-0.2-0.4L55,5.3c-0.1-0.1-0.2-0.2-0.4-0.2h-2.5
			c-0.1,0-0.3,0.1-0.4,0.2l-0.6,0.6c-0.2,0.2-0.5,0.2-0.7,0l-0.2-0.2c-0.2-0.2-0.2-0.5,0-0.7L51.2,4c0.1-0.1,0.2-0.2,0.4-0.2h3.9
			c0.1,0,0.3,0.1,0.4,0.2l1.2,1.2C57,5.3,57.1,5.4,57.1,5.6z M55.7,9.1L55.7,9.1c0-0.4-0.2-0.6-0.5-0.6l-3.3,0.2
			c-0.1,0-0.2,0.1-0.3,0.1l-0.2,0.2c-0.1,0.1-0.2,0.2-0.2,0.4V10c0,0.1,0.1,0.3,0.2,0.4l0.3,0.3c0.1,0.1,0.2,0.2,0.4,0.2h1.9
			c0.1,0,0.3-0.1,0.4-0.2l1.3-1.3C55.6,9.4,55.7,9.2,55.7,9.1z"/>
	</g>
</g>
</svg>
