<?xml version="1.0" encoding="UTF-8"?>
<svg width="335px" height="72px" viewBox="0 0 335 72" version="1.1" xmlns="http://www.w3.org/2000/svg" xmlns:xlink="http://www.w3.org/1999/xlink">
    <title>eikonica</title>
    <g id="Page-1" stroke="none" stroke-width="1" fill="none" fill-rule="evenodd">
        <g id="Medium" transform="translate(-9.000000, -3883.000000)" fill="#000000" fill-rule="nonzero">
            <g id="FOOTER-Copy" transform="translate(-1.298900, 3851.054798)">
                <g id="eikonica" transform="translate(11.148713, 31.961451)">
                    <path d="M43.1664374,34.5722146 L43.1664374,45.9986245 C43.1664374,48.1471802 41.4085282,49.8074278 39.3576341,49.8074278 L12.1100413,49.8074278 C9.96148556,49.8074278 8.30123796,51.565337 8.30123796,53.6162311 L8.30123796,56.3507565 C8.30123796,57.3273728 8.69188446,58.303989 9.37551582,59.085282 L12.696011,62.4057772 C13.3796424,63.0894085 14.3562586,63.480055 15.4305365,63.480055 L29.2984869,63.480055 C30.2751032,63.480055 31.2517194,63.0894085 32.0330124,62.4057772 L34.9628611,59.4759285 C36.4277854,58.0110041 38.869326,58.0110041 40.3342503,59.4759285 L40.3342503,59.4759285 C41.7991747,60.9408528 41.7991747,63.3823934 40.3342503,64.8473177 L35.4511692,69.7303989 C34.7675378,70.4140303 33.7909216,70.8046768 32.7166437,70.8046768 L11.7193948,70.8046768 C10.7427785,70.8046768 9.76616231,70.4140303 8.98486933,69.7303989 L1.07427785,61.8198074 C0.390646492,61.1361761 0,60.1595598 0,59.1829436 L0,34.5722146 C0,33.5955983 0.390646492,32.6189821 1.07427785,31.8376891 L8.98486933,23.9270977 C9.66850069,23.2434663 10.6451169,22.8528198 11.7193948,22.8528198 L31.349381,22.8528198 C32.3259972,22.8528198 33.3026135,23.2434663 34.0839065,23.9270977 L41.9944979,31.8376891 C42.6781293,32.6189821 43.1664374,33.5955983 43.1664374,34.5722146 Z M34.8651994,38.7716644 L34.8651994,37.30674 C34.8651994,36.3301238 34.474553,35.3535076 33.7909216,34.5722146 L30.3727648,31.2517194 C29.6891334,30.568088 28.7125172,30.1774415 27.6382393,30.1774415 L15.4305365,30.1774415 C14.4539202,30.1774415 13.477304,30.568088 12.696011,31.2517194 L9.37551582,34.5722146 C8.69188446,35.2558459 8.30123796,36.2324622 8.30123796,37.30674 L8.30123796,38.7716644 C8.30123796,40.9202201 10.0591472,42.5804677 12.1100413,42.5804677 L31.0563961,42.5804677 C33.1072902,42.6781293 34.8651994,40.9202201 34.8651994,38.7716644 Z" id="Shape"></path>
                    <path d="M57.2297111,0.781292985 L57.2297111,0.781292985 C59.4759285,0.781292985 61.3314993,2.63686382 61.3314993,4.88308116 L61.3314993,7.32462173 C61.3314993,9.57083906 59.4759285,11.4264099 57.2297111,11.4264099 L57.2297111,11.4264099 C54.9834938,11.4264099 53.127923,9.57083906 53.127923,7.32462173 L53.127923,4.88308116 C53.0302613,2.63686382 54.8858322,0.781292985 57.2297111,0.781292985 Z M57.2297111,22.8528198 L57.2297111,22.8528198 C59.4759285,22.8528198 61.3314993,24.7083906 61.3314993,26.954608 L61.3314993,66.7028886 C61.3314993,68.9491059 59.4759285,70.8046768 57.2297111,70.8046768 L57.2297111,70.8046768 C54.9834938,70.8046768 53.127923,68.9491059 53.127923,66.7028886 L53.127923,26.954608 C53.0302613,24.7083906 54.8858322,22.8528198 57.2297111,22.8528198 Z" id="Shape"></path>
                    <path d="M103.52132,69.7303989 L88.4814305,54.3975241 C86.1375516,51.9559835 82.0357634,53.7138927 82.0357634,57.0343879 L82.0357634,67.1911967 C82.0357634,69.2420908 80.3755158,70.9023384 78.3246217,70.9023384 L77.5433287,70.9023384 C75.4924347,70.9023384 73.8321871,69.2420908 73.8321871,67.1911967 L73.8321871,3.71114168 C73.8321871,1.66024759 75.4924347,0 77.5433287,0 L78.3246217,0 C80.3755158,0 82.0357634,1.66024759 82.0357634,3.71114168 L82.0357634,35.9394773 C82.0357634,39.2599725 86.1375516,41.0178817 88.4814305,38.5763411 L102.837689,23.9270977 C103.52132,23.2434663 104.497937,22.7551582 105.474553,22.7551582 L105.474553,22.7551582 C108.795048,22.7551582 110.455296,26.7592847 108.111417,29.1031637 L94.0481431,43.5570839 C92.5832187,45.0220083 92.5832187,47.3658872 94.0481431,48.8308116 L109.576341,64.4566713 C111.92022,66.8005502 110.259972,70.8046768 106.939477,70.8046768 L106.255846,70.8046768 C105.181568,70.9023384 104.302613,70.5116919 103.52132,69.7303989 Z" id="Path"></path>
                    <path d="M162.215956,36.9160935 L162.215956,56.8390646 C162.215956,59.3782669 161.23934,61.7221458 159.481431,63.480055 L154.891334,68.0701513 C153.133425,69.8280605 150.691884,70.8046768 148.250344,70.8046768 L133.210454,70.8046768 C130.671252,70.8046768 128.327373,69.8280605 126.569464,68.0701513 L121.979367,63.480055 C120.221458,61.7221458 119.244842,59.2806052 119.244842,56.8390646 L119.244842,36.9160935 C119.244842,34.3768913 120.221458,32.0330124 121.979367,30.2751032 L126.569464,25.6850069 C128.327373,23.9270977 130.768913,22.9504814 133.210454,22.9504814 L148.250344,22.9504814 C150.789546,22.9504814 153.133425,23.9270977 154.891334,25.6850069 L159.481431,30.2751032 C161.23934,32.0330124 162.215956,34.3768913 162.215956,36.9160935 Z M154.01238,54.1045392 L154.01238,39.650619 C154.01238,37.1114168 153.035763,34.7675378 151.277854,33.0096286 L151.277854,33.0096286 C149.422283,31.2517194 147.078404,30.2751032 144.539202,30.2751032 L136.823934,30.2751032 C134.284732,30.2751032 131.940853,31.2517194 130.182944,33.0096286 L130.182944,33.0096286 C128.425034,34.7675378 127.448418,37.2090784 127.448418,39.650619 L127.448418,54.1045392 C127.448418,56.6437414 128.425034,58.9876204 130.182944,60.7455296 L130.182944,60.7455296 C131.940853,62.5034388 134.382393,63.480055 136.823934,63.480055 L144.539202,63.480055 C147.078404,63.480055 149.422283,62.5034388 151.180193,60.7455296 L151.180193,60.7455296 C153.035763,58.9876204 154.01238,56.5460798 154.01238,54.1045392 Z" id="Shape"></path>
                    <path d="M214.367263,32.5213205 L214.367263,68.0701513 C214.367263,69.6327373 213.097662,70.9023384 211.535076,70.9023384 L208.898212,70.9023384 C207.335626,70.9023384 206.066025,69.6327373 206.066025,68.0701513 L206.066025,35.6464924 C206.066025,34.8651994 205.77304,34.1815681 205.18707,33.5955983 L202.647868,31.0563961 C202.15956,30.568088 201.378267,30.1774415 200.596974,30.1774415 L191.416781,30.1774415 C190.635488,30.1774415 189.951857,30.4704264 189.365887,31.0563961 L181.845942,38.5763411 C181.357634,39.0646492 180.966988,39.8459422 180.966988,40.6272352 L180.966988,68.1678129 C180.966988,69.7303989 179.697387,71 178.134801,71 L175.497937,71 C173.935351,71 172.66575,69.7303989 172.66575,68.1678129 L172.66575,25.6850069 C172.66575,24.1224209 173.935351,22.8528198 175.497937,22.8528198 L177.451169,22.8528198 C179.013755,22.8528198 180.185695,24.0247593 180.283356,25.5873453 L180.283356,25.5873453 C180.381018,28.0288858 183.408528,29.2008253 185.166437,27.4429161 L188.975241,23.6341128 C189.463549,23.1458047 190.244842,22.7551582 191.026135,22.7551582 L204.6011,22.7551582 C205.382393,22.7551582 206.066025,23.0481431 206.651994,23.6341128 L213.488308,30.4704264 C214.074278,31.0563961 214.367263,31.7400275 214.367263,32.5213205 Z" id="Path"></path>
                    <path d="M230.188446,0.781292985 L230.188446,0.781292985 C232.434663,0.781292985 234.290234,2.63686382 234.290234,4.88308116 L234.290234,7.32462173 C234.290234,9.57083906 232.434663,11.4264099 230.188446,11.4264099 L230.188446,11.4264099 C227.942228,11.4264099 226.086657,9.57083906 226.086657,7.32462173 L226.086657,4.88308116 C226.086657,2.63686382 227.942228,0.781292985 230.188446,0.781292985 Z M230.188446,22.8528198 L230.188446,22.8528198 C232.434663,22.8528198 234.290234,24.7083906 234.290234,26.954608 L234.290234,66.7028886 C234.290234,68.9491059 232.434663,70.8046768 230.188446,70.8046768 L230.188446,70.8046768 C227.942228,70.8046768 226.086657,68.9491059 226.086657,66.7028886 L226.086657,26.954608 C226.086657,24.7083906 227.942228,22.8528198 230.188446,22.8528198 Z" id="Shape"></path>
                    <path d="M283.804677,64.9449794 L278.921596,69.8280605 C278.237964,70.5116919 277.261348,70.9023384 276.18707,70.9023384 L256.654746,70.9023384 C255.678129,70.9023384 254.701513,70.5116919 253.92022,69.8280605 L246.009629,61.9174691 C245.325997,61.2338377 244.935351,60.2572215 244.935351,59.1829436 L244.935351,34.5722146 C244.935351,33.5955983 245.325997,32.6189821 246.009629,31.8376891 L253.92022,23.9270977 C254.603851,23.2434663 255.580468,22.8528198 256.654746,22.8528198 L275.698762,22.8528198 C276.675378,22.8528198 277.651994,23.2434663 278.433287,23.9270977 L283.316369,28.8101788 C284.781293,30.2751032 284.781293,32.7166437 283.316369,34.1815681 L283.316369,34.1815681 C281.851444,35.6464924 279.409904,35.6464924 277.944979,34.1815681 L275.112792,31.349381 C274.429161,30.6657497 273.452545,30.2751032 272.378267,30.2751032 L260.365887,30.2751032 C259.389271,30.2751032 258.412655,30.6657497 257.631362,31.349381 L254.408528,34.5722146 C253.724897,35.2558459 253.33425,36.2324622 253.33425,37.30674 L253.33425,56.3507565 C253.33425,57.3273728 253.724897,58.303989 254.408528,59.085282 L257.631362,62.3081155 C258.314993,62.9917469 259.291609,63.3823934 260.365887,63.3823934 L272.866575,63.3823934 C273.843191,63.3823934 274.819807,62.9917469 275.6011,62.3081155 L278.433287,59.4759285 C279.898212,58.0110041 282.339752,58.0110041 283.804677,59.4759285 L283.804677,59.4759285 C285.269601,61.0385144 285.269601,63.480055 283.804677,64.9449794 Z" id="Path"></path>
                    <path d="M333.807428,32.5213205 L333.807428,68.0701513 C333.807428,69.6327373 332.537827,70.9023384 330.975241,70.9023384 L329.022008,70.9023384 C327.459422,70.9023384 326.287483,69.7303989 326.189821,68.1678129 L326.189821,68.1678129 C326.09216,65.7262724 323.064649,64.5543329 321.30674,66.3122421 L317.497937,70.1210454 C317.009629,70.6093535 316.228336,71 315.447043,71 L300.114168,71 C299.332875,71 298.649243,70.7070151 298.063274,70.1210454 L291.519945,63.5777166 C291.031637,63.0894085 290.64099,62.3081155 290.64099,61.5268226 L290.64099,52.6396149 C290.64099,51.8583219 290.933975,51.1746905 291.519945,50.5887208 L297.086657,45.0220083 C297.574966,44.5337001 298.258597,44.2407153 298.942228,44.2407153 L322.674003,42.5804677 C324.138927,42.4828061 325.310867,41.213205 325.310867,39.7482806 L325.310867,35.5488308 C325.310867,34.7675378 325.017882,34.0839065 324.431912,33.4979367 L321.795048,30.8610729 C321.30674,30.3727648 320.525447,29.9821183 319.744154,29.9821183 L304.899587,29.9821183 C304.118294,29.9821183 303.434663,30.2751032 302.848693,30.8610729 L299.235213,34.474553 C298.160935,35.5488308 296.305365,35.5488308 295.231087,34.474553 L293.863824,33.1072902 C292.789546,32.0330124 292.789546,30.1774415 293.863824,29.1031637 L299.332875,23.6341128 C299.821183,23.1458047 300.602476,22.7551582 301.383769,22.7551582 L323.943604,22.7551582 C324.724897,22.7551582 325.408528,23.0481431 325.994498,23.6341128 L332.830812,30.4704264 C333.514443,31.0563961 333.807428,31.7400275 333.807428,32.5213205 Z M325.50619,53.127923 L325.50619,52.7372765 C325.50619,51.0770289 324.138927,49.8074278 322.47868,49.9050894 L303.044017,51.2723521 C302.360385,51.2723521 301.676754,51.565337 301.286107,52.0536451 L300.016506,53.3232462 C299.528198,53.8115543 299.137552,54.5928473 299.137552,55.3741403 L299.137552,58.6946355 C299.137552,59.4759285 299.430536,60.1595598 300.016506,60.7455296 L301.969739,62.698762 C302.458047,63.1870702 303.23934,63.5777166 304.020633,63.5777166 L315.154058,63.5777166 C315.935351,63.5777166 316.618982,63.2847318 317.204952,62.698762 L324.822558,55.0811554 C325.213205,54.6905089 325.50619,53.909216 325.50619,53.127923 Z" id="Shape"></path>
                </g>
            </g>
        </g>
    </g>
</svg>