<?xml version="1.0" encoding="UTF-8"?>
<svg width="136px" height="134px" viewBox="0 0 136 134" version="1.1" xmlns="http://www.w3.org/2000/svg" xmlns:xlink="http://www.w3.org/1999/xlink">
    <title>etat_de_fribourg</title>
    <g id="Page-1" stroke="none" stroke-width="1" fill="none" fill-rule="evenodd">
        <g id="Medium" transform="translate(-646.000000, -3909.000000)" fill="#000000" fill-rule="nonzero">
            <g id="FOOTER-Copy" transform="translate(-76.832187, 3851.054798)">
                <g id="etat_de_fribourg" transform="translate(723.685189, 58.461451)">
                    <path d="M0.729717373,63.4944203 L0.729717373,66.2308604 C8.75660847,64.2241376 17.3307876,59.2985454 22.0739505,54.9202411 C25.1752494,52.0013716 27.9116895,48.5352141 30.1008416,44.5217686 C30.1008416,44.5217686 30.283271,44.3393392 30.283271,44.1569099 C32.2899937,40.508323 33.7494285,36.1300188 34.8440045,31.0219972 C37.762874,16.9749378 33.3845698,2.92787835 32.4724231,1.10358492 C31.377847,-0.173420487 29.9184123,0.00900885645 28.8238362,0.00900885645 C28.6414069,0.00900885645 28.2765482,0.00900885645 28.0941188,0.00900885645 L0.729717373,0.00900885645 L0.729717373,32.1165732 L21.7090918,32.1165732 C21.8915212,32.1165732 22.2563799,32.1165732 22.2563799,32.1165732 C22.9860972,32.2990026 23.5333853,32.6638613 23.5333853,33.3935786 C23.5333853,33.576008 23.5333853,33.7584373 23.5333853,33.9408667 C23.5333853,40.3258937 20.4320864,52.9135184 2.37158146,60.9404095 L0.729717373,61.6701268 L0.729717373,63.4944203 Z" id="Path"></path>
                    <g id="Group" transform="translate(0.000000, 81.372496)">
                        <polygon id="Path" points="0.729717373 0.182429343 7.84446175 0.182429343 7.84446175 1.2770054 2.18915212 1.2770054 2.18915212 4.56073358 7.47960307 4.56073358 7.47960307 5.65530964 2.18915212 5.65530964 2.18915212 9.12146716 7.84446175 9.12146716 7.84446175 10.2160432 0.729717373 10.2160432"></polygon>
                        <polygon id="Path" points="12.0403366 1.2770054 8.75660847 1.2770054 8.75660847 0.182429343 16.9659289 0.182429343 16.9659289 1.2770054 13.4997714 1.2770054 13.4997714 10.3984726 12.0403366 10.3984726"></polygon>
                        <path d="M19.7023691,0.182429343 L21.1618038,0.182429343 L25.1752494,10.3984726 L23.7158146,10.3984726 L22.6212385,7.29717373 L18.2429343,7.29717373 L17.1483583,10.3984726 L15.6889235,10.3984726 L19.7023691,0.182429343 Z M18.607793,6.20259767 L22.0739505,6.20259767 L20.4320864,1.45943475 L20.4320864,1.45943475 L18.607793,6.20259767 Z" id="Shape"></path>
                        <polygon id="Path" points="27.5468308 1.2770054 24.0806733 1.2770054 24.0806733 0.182429343 32.2899937 0.182429343 32.2899937 1.2770054 28.8238362 1.2770054 28.8238362 10.3984726 27.5468308 10.3984726"></polygon>
                        <path d="M37.9453034,0.182429343 L41.4114609,0.182429343 C44.5127597,0.182429343 46.3370532,1.82429343 46.3370532,5.10802161 C46.3370532,8.57417913 44.8776184,10.3984726 41.4114609,10.3984726 L37.9453034,10.3984726 L37.9453034,0.182429343 Z M39.2223088,9.3038965 L41.4114609,9.3038965 C42.3236076,9.3038965 44.8776184,9.12146716 44.8776184,5.29045095 C44.8776184,2.91886949 43.9654717,1.45943475 41.4114609,1.45943475 L39.0398794,1.45943475 L39.0398794,9.3038965 L39.2223088,9.3038965 Z" id="Shape"></path>
                        <polygon id="Path" points="48.1613466 0.182429343 55.276091 0.182429343 55.276091 1.2770054 49.6207813 1.2770054 49.6207813 4.56073358 54.9112323 4.56073358 54.9112323 5.65530964 49.6207813 5.65530964 49.6207813 9.12146716 55.276091 9.12146716 55.276091 10.2160432 48.1613466 10.2160432 48.1613466 0.182429343"></polygon>
                        <polygon id="Path" points="61.4786886 0.182429343 68.2285743 0.182429343 68.2285743 1.2770054 62.9381234 1.2770054 62.9381234 4.56073358 67.6812863 4.56073358 67.6812863 5.65530964 62.9381234 5.65530964 62.9381234 10.3984726 61.661118 10.3984726 61.661118 0.182429343"></polygon>
                        <path d="M69.8704384,0.182429343 L74.6136013,0.182429343 C76.4378948,0.182429343 77.7149002,1.2770054 77.7149002,2.91886949 C77.7149002,4.19587489 77.1676121,5.10802161 75.8906067,5.47288029 L75.8906067,5.47288029 C77.1676121,5.65530964 77.3500415,6.56745635 77.3500415,7.66203241 C77.3500415,8.57417913 77.3500415,9.85118453 77.8973295,10.3984726 L76.4378948,10.3984726 C76.0730361,10.0336139 76.2554654,8.93903781 76.0730361,7.84446175 C75.8906067,6.93231504 75.7081774,6.02016832 74.431172,6.02016832 L71.3298732,6.02016832 L71.3298732,10.3984726 L70.0528678,10.3984726 L70.0528678,0.182429343 L69.8704384,0.182429343 Z M74.0663133,4.92559226 C75.3433187,4.92559226 76.4378948,4.56073358 76.4378948,3.10129883 C76.4378948,2.18915212 75.8906067,1.2770054 74.6136013,1.2770054 L71.3298732,1.2770054 L71.3298732,4.74316292 L74.0663133,4.74316292 L74.0663133,4.92559226 Z" id="Shape"></path>
                        <polygon id="Path" points="80.0864816 0.182429343 81.363487 0.182429343 81.363487 10.3984726 80.0864816 10.3984726"></polygon>
                        <path d="M83.9174978,0.182429343 L87.5660847,0.182429343 C88.4782314,0.182429343 89.5728075,0.182429343 90.3025249,0.547288029 C91.0322422,0.912146716 91.5795303,1.64186409 91.5795303,2.73644015 C91.5795303,3.83101621 91.0322422,4.56073358 90.1200955,5.10802161 L90.1200955,5.10802161 C91.3971009,5.29045095 92.1268183,6.38502701 92.1268183,7.47960307 C92.1268183,8.93903781 91.0322422,10.3984726 89.0255194,10.3984726 L84.0999272,10.3984726 L84.0999272,0.182429343 L83.9174978,0.182429343 Z M85.3769326,4.56073358 L88.1133727,4.56073358 C89.5728075,4.56073358 90.3025249,4.01344555 90.3025249,2.91886949 C90.3025249,1.45943475 89.3903781,1.2770054 88.1133727,1.2770054 L85.3769326,1.2770054 L85.3769326,4.56073358 Z M85.3769326,9.3038965 L88.8430901,9.3038965 C89.9376662,9.3038965 90.6673835,8.57417913 90.6673835,7.47960307 C90.6673835,6.20259767 89.5728075,5.83773898 88.4782314,5.83773898 L85.3769326,5.83773898 L85.3769326,9.3038965 L85.3769326,9.3038965 Z" id="Shape"></path>
                        <path d="M98.3294159,0 C101.613144,0 103.255008,2.5540108 103.255008,5.29045095 C103.255008,8.0268911 101.613144,10.5809019 98.3294159,10.5809019 C95.0456878,10.5809019 93.4038237,8.0268911 93.4038237,5.29045095 C93.4038237,2.5540108 95.0456878,0 98.3294159,0 Z M98.3294159,9.48632584 C100.883427,9.48632584 101.795573,7.29717373 101.795573,5.29045095 C101.795573,3.28372818 100.700997,1.09457606 98.3294159,1.09457606 C95.7754051,1.09457606 94.8632584,3.28372818 94.8632584,5.29045095 C94.8632584,7.29717373 95.7754051,9.48632584 98.3294159,9.48632584 Z" id="Shape"></path>
                        <path d="M113.288622,6.7498857 C113.288622,9.3038965 111.829187,10.7633312 109.275177,10.7633312 C106.721166,10.7633312 105.079302,9.48632584 105.079302,6.7498857 L105.079302,0.182429343 L106.356307,0.182429343 L106.356307,6.7498857 C106.356307,8.57417913 107.450883,9.48632584 109.092747,9.48632584 C110.734611,9.48632584 111.829187,8.57417913 111.829187,6.7498857 L111.829187,0.182429343 L113.288622,0.182429343 L113.288622,6.7498857 Z" id="Path"></path>
                        <path d="M115.660204,0.182429343 L120.585796,0.182429343 C122.410089,0.182429343 123.687095,1.2770054 123.687095,2.91886949 C123.687095,4.19587489 123.139807,5.10802161 121.862801,5.47288029 L121.862801,5.47288029 C123.139807,5.65530964 123.322236,6.56745635 123.322236,7.66203241 C123.322236,8.57417913 123.322236,9.85118453 123.869524,10.3984726 L122.410089,10.3984726 C122.045231,10.0336139 122.22766,8.93903781 122.045231,7.84446175 C121.862801,6.93231504 121.680372,6.02016832 120.403366,6.02016832 L117.119638,6.02016832 L117.119638,10.3984726 L115.842633,10.3984726 L115.842633,0.182429343 L115.660204,0.182429343 Z M119.856078,4.92559226 C121.133084,4.92559226 122.22766,4.56073358 122.22766,3.10129883 C122.22766,2.18915212 121.680372,1.2770054 120.403366,1.2770054 L117.119638,1.2770054 L117.119638,4.74316292 L119.856078,4.74316292 L119.856078,4.92559226 Z" id="Shape"></path>
                        <path d="M133.35585,9.12146716 C132.626132,10.2160432 131.349127,10.5809019 130.072122,10.5809019 C126.970823,10.5809019 125.146529,8.0268911 125.146529,5.47288029 C125.146529,2.5540108 126.788393,0 130.072122,0 C132.261274,0 134.085567,0.912146716 134.450426,3.46615752 L133.17342,3.46615752 C132.990991,2.00672277 131.713986,1.2770054 130.072122,1.2770054 C127.518111,1.2770054 126.605964,3.46615752 126.605964,5.65530964 C126.605964,7.84446175 127.88297,9.66875519 130.072122,9.66875519 C132.261274,9.66875519 133.35585,8.20932044 133.35585,6.38502701 L130.072122,6.38502701 L130.072122,5.29045095 L134.450426,5.29045095 L134.450426,10.5809019 L133.538279,10.5809019 L133.35585,9.12146716 Z" id="Path"></path>
                        <path d="M6.56745635,23.5333853 C6.38502701,22.0739505 5.47288029,21.5266625 4.01344555,21.5266625 C2.91886949,21.5266625 1.64186409,21.8915212 1.64186409,23.3509559 C1.64186409,24.6279613 3.28372818,24.8103907 4.92559226,25.1752494 C6.56745635,25.540108 8.20932044,26.0873961 8.20932044,28.0941188 C8.20932044,30.283271 6.02016832,31.1954177 4.19587489,31.1954177 C1.82429343,31.1954177 0,30.1008416 0,27.5468308 L1.2770054,27.5468308 C1.2770054,29.1886949 2.73644015,29.9184123 4.19587489,29.9184123 C5.47288029,29.9184123 6.7498857,29.5535536 6.7498857,28.0941188 C6.7498857,26.6346841 5.10802161,26.4522548 3.46615752,26.0873961 C1.82429343,25.7225374 0.182429343,25.1752494 0.182429343,23.3509559 C0.182429343,21.3442331 2.00672277,20.4320864 3.83101621,20.4320864 C5.83773898,20.4320864 7.47960307,21.3442331 7.66203241,23.7158146 L6.56745635,23.7158146 L6.56745635,23.5333853 Z" id="Path"></path>
                        <polygon id="Path" points="12.0403366 21.7090918 8.57417913 21.7090918 8.57417913 20.6145158 16.7834996 20.6145158 16.7834996 21.7090918 13.317342 21.7090918 13.317342 30.830559 12.0403366 30.830559"></polygon>
                        <path d="M19.7023691,20.6145158 L21.1618038,20.6145158 L25.1752494,30.830559 L23.7158146,30.830559 L22.6212385,27.7292602 L18.2429343,27.7292602 L17.1483583,30.830559 L15.6889235,30.830559 L19.7023691,20.6145158 Z M18.607793,26.6346841 L22.0739505,26.6346841 L20.4320864,21.8915212 L20.4320864,21.8915212 L18.607793,26.6346841 Z" id="Shape"></path>
                        <path d="M29.1886949,20.6145158 L30.6481296,20.6145158 L34.6615752,30.830559 L33.2021405,30.830559 L32.1075644,27.7292602 L27.7292602,27.7292602 L26.6346841,30.830559 L25.1752494,30.830559 L29.1886949,20.6145158 Z M28.0941188,26.6346841 L31.5602764,26.6346841 L29.9184123,21.8915212 L29.9184123,21.8915212 L28.0941188,26.6346841 Z" id="Shape"></path>
                        <polygon id="Path" points="37.0331567 21.7090918 33.5669991 21.7090918 33.5669991 20.6145158 41.7763196 20.6145158 41.7763196 21.7090918 38.3101621 21.7090918 38.3101621 30.830559 37.0331567 30.830559 37.0331567 21.7090918"></polygon>
                        <polygon id="Path" points="47.4316292 20.6145158 54.1815149 20.6145158 54.1815149 21.7090918 48.891064 21.7090918 48.891064 24.99282 53.6342269 24.99282 53.6342269 26.0873961 48.891064 26.0873961 48.891064 30.830559 47.6140586 30.830559 47.6140586 20.6145158"></polygon>
                        <path d="M55.823379,20.6145158 L60.5665419,20.6145158 C62.3908354,20.6145158 63.6678408,21.7090918 63.6678408,23.3509559 C63.6678408,24.6279613 63.1205527,25.540108 61.8435473,25.9049667 L61.8435473,25.9049667 C62.9381234,26.0873961 63.3029821,26.9995428 63.3029821,28.0941188 C63.3029821,29.0062656 63.3029821,30.283271 63.8502701,30.830559 L62.3908354,30.830559 C62.0259767,30.4657003 62.208406,29.3711242 62.0259767,28.2765482 C61.8435473,27.3644015 61.661118,26.4522548 60.3841126,26.4522548 L57.1003844,26.4522548 L57.1003844,30.830559 L55.823379,30.830559 L55.823379,20.6145158 Z M60.0192539,25.3576787 C61.2962593,25.3576787 62.3908354,24.99282 62.3908354,23.5333853 C62.3908354,22.6212385 61.8435473,21.7090918 60.5665419,21.7090918 L57.2828137,21.7090918 L57.2828137,25.1752494 L60.0192539,25.1752494 L60.0192539,25.3576787 Z" id="Shape"></path>
                        <polygon id="Path" points="65.8569929 20.6145158 72.9717373 20.6145158 72.9717373 21.7090918 67.3164276 21.7090918 67.3164276 24.99282 72.6068786 24.99282 72.6068786 26.0873961 67.3164276 26.0873961 67.3164276 29.5535536 72.9717373 29.5535536 72.9717373 30.6481296 65.8569929 30.6481296"></polygon>
                        <polygon id="Path" points="74.97846 20.6145158 76.2554654 20.6145158 76.2554654 30.830559 74.97846 30.830559"></polygon>
                        <path d="M78.8094762,20.6145158 L82.4580631,20.6145158 C83.3702098,20.6145158 84.4647859,20.6145158 85.1945032,20.9793745 C85.9242206,21.3442331 86.4715086,22.0739505 86.4715086,23.1685266 C86.4715086,24.2631026 85.9242206,24.99282 85.0120739,25.540108 L85.0120739,25.540108 C86.2890793,25.7225374 87.0187967,26.8171134 87.0187967,27.9116895 C87.0187967,29.3711242 85.9242206,30.830559 83.9174978,30.830559 L78.9919056,30.830559 L78.9919056,20.6145158 L78.8094762,20.6145158 Z M80.268911,24.99282 L83.0053511,24.99282 C84.4647859,24.99282 85.1945032,24.445532 85.1945032,23.3509559 C85.1945032,21.8915212 84.2823565,21.7090918 83.0053511,21.7090918 L80.268911,21.7090918 L80.268911,24.99282 Z M80.268911,29.7359829 L83.7350685,29.7359829 C84.8296446,29.7359829 85.5593619,29.0062656 85.5593619,27.9116895 C85.5593619,26.6346841 84.4647859,26.2698254 83.3702098,26.2698254 L80.268911,26.2698254 L80.268911,29.7359829 L80.268911,29.7359829 Z" id="Shape"></path>
                        <path d="M97.0524105,27.1819721 C97.0524105,29.7359829 95.5929758,31.1954177 93.038965,31.1954177 C90.4849542,31.1954177 88.8430901,29.9184123 88.8430901,27.1819721 L88.8430901,20.6145158 L90.1200955,20.6145158 L90.1200955,27.1819721 C90.1200955,29.0062656 91.2146716,29.9184123 92.8565357,29.9184123 C94.4983997,29.9184123 95.5929758,29.0062656 95.5929758,27.1819721 L95.5929758,20.6145158 L96.8699812,20.6145158 L96.8699812,27.1819721 L97.0524105,27.1819721 Z" id="Path"></path>
                        <path d="M99.423992,20.6145158 L104.167155,20.6145158 C105.991448,20.6145158 107.268454,21.7090918 107.268454,23.3509559 C107.268454,24.6279613 106.721166,25.540108 105.44416,25.9049667 L105.44416,25.9049667 C106.538736,26.0873961 106.903595,26.9995428 106.903595,28.0941188 C106.903595,29.0062656 106.903595,30.283271 107.450883,30.830559 L105.991448,30.830559 C105.62659,30.4657003 105.809019,29.3711242 105.62659,28.2765482 C105.44416,27.3644015 105.261731,26.4522548 103.984726,26.4522548 L100.700997,26.4522548 L100.700997,30.830559 L99.423992,30.830559 L99.423992,20.6145158 Z M103.619867,25.3576787 C104.896872,25.3576787 105.991448,24.99282 105.991448,23.5333853 C105.991448,22.6212385 105.44416,21.7090918 104.167155,21.7090918 L100.883427,21.7090918 L100.883427,25.1752494 L103.619867,25.1752494 L103.619867,25.3576787 Z" id="Shape"></path>
                        <path d="M117.119638,29.5535536 C116.389921,30.6481296 115.112916,31.0129883 113.83591,31.0129883 C110.734611,31.0129883 108.910318,28.4589775 108.910318,25.9049667 C108.910318,22.9860972 110.552182,20.4320864 113.83591,20.4320864 C116.025062,20.4320864 117.849356,21.3442331 118.214214,23.898244 L116.937209,23.898244 C116.75478,22.4388092 115.477774,21.7090918 113.83591,21.7090918 C111.281899,21.7090918 110.369753,23.898244 110.369753,26.0873961 C110.369753,28.2765482 111.646758,30.1008416 113.83591,30.1008416 C116.025062,30.1008416 117.119638,28.6414069 117.119638,26.8171134 L113.83591,26.8171134 L113.83591,25.7225374 L118.214214,25.7225374 L118.214214,31.0129883 L117.302068,31.0129883 L117.119638,29.5535536 Z" id="Path"></path>
                        <polygon id="Path" points="7.11474438 51.2626454 6.20259767 51.2626454 4.56073358 45.4249064 4.56073358 45.4249064 2.91886949 51.2626454 2.00672277 51.2626454 0.182429343 44.3303304 1.09457606 44.3303304 2.5540108 49.98564 2.5540108 49.98564 4.19587489 44.147901 5.29045095 44.147901 6.56745635 49.98564 6.56745635 49.98564 8.0268911 44.147901 8.93903781 44.147901"></polygon>
                        <polygon id="Path" points="16.4186409 51.2626454 15.5064942 51.2626454 13.8646301 45.4249064 13.8646301 45.4249064 12.222766 51.2626454 11.3106193 51.2626454 9.48632584 44.3303304 10.3984726 44.3303304 11.8579073 49.98564 11.8579073 49.98564 13.4997714 44.147901 14.5943475 44.147901 15.8713529 49.98564 15.8713529 49.98564 17.3307876 44.147901 18.2429343 44.147901"></polygon>
                        <polygon id="Path" points="25.7225374 51.2626454 24.8103907 51.2626454 23.1685266 45.4249064 23.1685266 45.4249064 21.5266625 51.2626454 20.6145158 51.2626454 18.7902223 44.3303304 19.7023691 44.3303304 21.1618038 50.1680694 21.1618038 50.1680694 22.8036679 44.3303304 23.898244 44.3303304 25.3576787 50.1680694 25.3576787 50.1680694 26.8171134 44.3303304 27.5468308 44.3303304"></polygon>
                        <polygon id="Path" points="27.9116895 50.1680694 29.0062656 50.1680694 29.0062656 51.2626454 27.9116895 51.2626454"></polygon>
                        <polygon id="Path" points="30.830559 44.147901 35.3912926 44.147901 35.3912926 44.8776184 31.7427057 44.8776184 31.7427057 47.0667705 35.0264339 47.0667705 35.0264339 47.7964879 31.7427057 47.7964879 31.7427057 51.0802161 30.830559 51.0802161"></polygon>
                        <path d="M36.668298,44.147901 L39.9520261,44.147901 C41.2290315,44.147901 42.1411783,44.8776184 42.1411783,45.9721945 C42.1411783,46.8843412 41.7763196,47.4316292 40.8641729,47.7964879 L40.8641729,47.7964879 C41.5938902,47.9789172 41.7763196,48.5262053 41.9587489,49.2559226 C41.9587489,49.98564 41.9587489,50.7153574 42.3236076,51.2626454 L41.2290315,51.2626454 C41.0466022,50.8977867 41.0466022,50.1680694 41.0466022,49.6207813 C40.8641729,48.891064 40.8641729,48.3437759 39.9520261,48.3437759 L37.762874,48.3437759 L37.762874,51.2626454 L36.668298,51.2626454 L36.668298,44.147901 Z M39.5871675,47.4316292 C40.4993142,47.4316292 41.2290315,47.2491999 41.2290315,46.1546238 C41.2290315,45.4249064 40.8641729,44.8776184 39.9520261,44.8776184 L37.5804447,44.8776184 L37.5804447,47.2491999 L39.5871675,47.2491999 L39.5871675,47.4316292 Z" id="Shape"></path>
                        <polygon id="Path" points="43.600613 50.1680694 44.6951891 50.1680694 44.6951891 51.2626454 43.600613 51.2626454"></polygon>
                        <path d="M51.4450748,46.3370532 C51.2626454,45.4249064 50.532928,44.8776184 49.438352,44.8776184 C47.7964879,44.8776184 47.0667705,46.3370532 47.0667705,47.7964879 C47.0667705,49.438352 47.7964879,50.7153574 49.438352,50.7153574 C50.7153574,50.7153574 51.4450748,49.8032107 51.4450748,48.7086346 L52.3572215,48.7086346 C52.1747921,50.532928 51.0802161,51.4450748 49.2559226,51.4450748 C47.0667705,51.4450748 45.9721945,49.8032107 45.9721945,47.7964879 C45.9721945,45.7897651 47.0667705,44.147901 49.2559226,44.147901 C50.7153574,44.147901 51.9923628,44.8776184 52.1747921,46.3370532 L51.4450748,46.3370532 Z" id="Path"></path>
                        <polygon id="Path" points="53.8166562 44.147901 54.7288029 44.147901 54.7288029 47.0667705 58.3773898 47.0667705 58.3773898 44.147901 59.2895365 44.147901 59.2895365 51.0802161 58.3773898 51.0802161 58.3773898 47.7964879 54.7288029 47.7964879 54.7288029 51.0802161 53.8166562 51.0802161"></polygon>
                    </g>
                </g>
            </g>
        </g>
    </g>
</svg>