<?xml version="1.0" encoding="UTF-8"?>
<svg width="202px" height="71px" viewBox="0 0 202 71" version="1.1" xmlns="http://www.w3.org/2000/svg" xmlns:xlink="http://www.w3.org/1999/xlink">
    <title>fri-son</title>
    <g id="Page-1" stroke="none" stroke-width="1" fill="none" fill-rule="evenodd">
        <g id="Medium" transform="translate(-867.000000, -3941.000000)" fill-rule="nonzero">
            <g id="FOOTER-Copy" transform="translate(-76.832187, 3851.054798)">
                <g id="fri-son" transform="translate(944.817615, 89.961451)">
                    <g id="Group" fill="#000000">
                        <path d="M136.079,27.292 C126.777,27.292 118.937,33.272 116.016,41.563 C114.473,37.221 111.592,33.504 107.848,30.962 C104.772,28.867 102.735,25.371 102.735,21.4 C102.735,15.099 107.923,9.958 114.27,9.958 L114.27,0.094 C102.51,0.094 92.887,9.584 92.887,21.401 C92.887,28.755 96.607,35.253 102.253,39.106 L102.253,39.121 C105.347,41.194 107.382,44.714 107.382,48.696 C107.382,54.987 102.194,60.135 95.85,60.135 C89.538,60.135 84.41,54.987 84.41,48.696 L74.543,48.696 C74.542,60.415 84.124,70 95.848,70 C105.139,70 113.075,64.062 116.014,55.752 C118.945,64.029 126.844,70 136.079,70 C147.853,70 157.478,60.508 157.478,48.693 C157.479,36.88 147.889,27.292 136.079,27.292 M136.079,60.134 C129.785,60.134 124.641,54.985 124.641,48.694 C124.641,42.346 129.787,37.161 136.079,37.161 C142.426,37.161 147.611,42.349 147.611,48.694 C147.611,54.984 142.426,60.134 136.079,60.134" id="Shape"></path>
                        <path d="M190.32,69.046 L200.318,69.046 L200.318,48.693 C200.318,36.88 190.603,27.29 178.882,27.29 C167.064,27.29 157.478,36.88 157.478,48.693 L157.478,69.068 L167.349,69.068 L167.349,48.693 C167.349,42.402 172.535,37.16 178.882,37.16 C185.172,37.16 190.32,42.402 190.32,48.693 L190.32,69.046 L190.32,69.046 Z" id="Path"></path>
                        <path d="M57.707,26.386 L57.707,26.386 C51.148,26.386 45.26,29.402 41.342,34.105 C37.427,29.401 31.52,26.386 24.96,26.386 L22.309,26.386 L22.309,21.307 C22.309,15.016 27.495,9.87 33.843,9.87 L33.843,0 C22.083,0 12.441,9.496 12.441,21.307 L12.441,26.386 L0,26.386 L0,36.253 L12.441,36.253 L12.441,69.124 L22.309,69.124 L22.309,36.253 L24.96,36.253 C31.269,36.253 36.398,41.385 36.398,47.693 L36.398,69.078 L46.269,69.078 L46.269,47.693 C46.269,41.384 51.416,36.253 57.707,36.253 L60.362,36.253 L60.362,69.078 L70.227,69.078 L70.227,26.386 L57.707,26.386 Z" id="Path"></path>
                        <polygon id="Path" points="90.201 26.386 74.497 36.253 74.497 46.368 90.201 36.748"></polygon>
                    </g>
                    <rect id="Rectangle" fill="#231F20" x="60.359" y="0.098" width="9.865" height="23.632"></rect>
                </g>
            </g>
        </g>
    </g>
</svg>