<?xml version="1.0" encoding="UTF-8"?>
<svg width="931px" height="199px" viewBox="0 0 931 199" version="1.1" xmlns="http://www.w3.org/2000/svg" xmlns:xlink="http://www.w3.org/1999/xlink">
    <title>logo-eikonica</title>
    <g id="Page-1" stroke="none" stroke-width="1" fill="none" fill-rule="evenodd">
        <g id="Medium" transform="translate(-46.000000, -970.000000)" fill="#000000" fill-rule="nonzero">
            <g id="MAIN" transform="translate(-3.000000, 37.960750)">
                <g id="Carousel" transform="translate(2.000000, 0.000000)">
                    <g id="Carousel-" transform="translate(1.000000, 0.000000)">
                        <g id="logo-eikonica" transform="translate(46.000000, 933.000000)">
                            <path d="M120.379642,96.4126547 L120.379642,128.277854 C120.379642,134.269601 115.477304,138.899587 109.757909,138.899587 L33.7716644,138.899587 C27.7799175,138.899587 23.1499312,143.801926 23.1499312,149.52132 L23.1499312,157.14718 C23.1499312,159.870702 24.2393398,162.594223 26.1458047,164.77304 L35.4057772,174.033012 C37.3122421,175.939477 40.0357634,177.028886 43.0316369,177.028886 L81.7056396,177.028886 C84.4291609,177.028886 87.1526823,175.939477 89.3314993,174.033012 L97.5020633,165.862448 C101.587345,161.777166 108.396149,161.777166 112.481431,165.862448 L112.481431,165.862448 C116.566713,169.94773 116.566713,176.756534 112.481431,180.841816 L98.8638239,194.459422 C96.957359,196.365887 94.2338377,197.455296 91.2379642,197.455296 L32.6822558,197.455296 C29.9587345,197.455296 27.2352132,196.365887 25.0563961,194.459422 L2.99587345,172.3989 C1.08940853,170.492435 0,167.768913 0,165.045392 L0,96.4126547 C0,93.6891334 1.08940853,90.9656121 2.99587345,88.786795 L25.0563961,66.7262724 C26.9628611,64.8198074 29.6863824,63.7303989 32.6822558,63.7303989 L87.4250344,63.7303989 C90.1485557,63.7303989 92.872077,64.8198074 95.0508941,66.7262724 L117.111417,88.786795 C119.017882,90.9656121 120.379642,93.6891334 120.379642,96.4126547 Z M97.2297111,108.123796 L97.2297111,104.038514 C97.2297111,101.314993 96.1403026,98.5914718 94.2338377,96.4126547 L84.7015131,87.1526823 C82.7950481,85.2462173 80.0715268,84.1568088 77.0756534,84.1568088 L43.0316369,84.1568088 C40.3081155,84.1568088 37.5845942,85.2462173 35.4057772,87.1526823 L26.1458047,96.4126547 C24.2393398,98.3191197 23.1499312,101.042641 23.1499312,104.038514 L23.1499312,108.123796 C23.1499312,114.115543 28.0522696,118.74553 33.7716644,118.74553 L86.607978,118.74553 C92.3273728,119.017882 97.2297111,114.115543 97.2297111,108.123796 Z" id="Shape"></path>
                            <path d="M159.598349,2.17881706 L159.598349,2.17881706 C165.862448,2.17881706 171.037139,7.35350757 171.037139,13.6176066 L171.037139,20.4264099 C171.037139,26.6905089 165.862448,31.8651994 159.598349,31.8651994 L159.598349,31.8651994 C153.33425,31.8651994 148.15956,26.6905089 148.15956,20.4264099 L148.15956,13.6176066 C147.887208,7.35350757 153.061898,2.17881706 159.598349,2.17881706 Z M159.598349,63.7303989 L159.598349,63.7303989 C165.862448,63.7303989 171.037139,68.9050894 171.037139,75.1691884 L171.037139,186.016506 C171.037139,192.280605 165.862448,197.455296 159.598349,197.455296 L159.598349,197.455296 C153.33425,197.455296 148.15956,192.280605 148.15956,186.016506 L148.15956,75.1691884 C147.887208,68.9050894 153.061898,63.7303989 159.598349,63.7303989 Z" id="Shape"></path>
                            <path d="M288.69326,194.459422 L246.751032,151.700138 C240.21458,144.891334 228.775791,149.793673 228.775791,159.053645 L228.775791,187.378267 C228.775791,193.097662 224.145805,197.727648 218.42641,197.727648 L216.247593,197.727648 C210.528198,197.727648 205.898212,193.097662 205.898212,187.378267 L205.898212,10.349381 C205.898212,4.62998624 210.528198,0 216.247593,0 L218.42641,0 C224.145805,0 228.775791,4.62998624 228.775791,10.349381 L228.775791,100.225585 C228.775791,109.485557 240.21458,114.387895 246.751032,107.579092 L286.786795,66.7262724 C288.69326,64.8198074 291.416781,63.4580468 294.140303,63.4580468 L294.140303,63.4580468 C303.400275,63.4580468 308.030261,74.6244842 301.49381,81.1609354 L262.275103,121.469051 C258.189821,125.554333 258.189821,132.090784 262.275103,136.176066 L305.579092,179.752407 C312.115543,186.288858 307.485557,197.455296 298.225585,197.455296 L296.31912,197.455296 C293.323246,197.727648 290.872077,196.638239 288.69326,194.459422 Z" id="Path"></path>
                            <path d="M452.376891,102.949106 L452.376891,158.508941 C452.376891,165.590096 449.65337,172.126547 444.751032,177.028886 L431.950481,189.829436 C427.048143,194.731774 420.23934,197.455296 413.430536,197.455296 L371.488308,197.455296 C364.407153,197.455296 357.870702,194.731774 352.968363,189.829436 L340.167813,177.028886 C335.265475,172.126547 332.541953,165.317744 332.541953,158.508941 L332.541953,102.949106 C332.541953,95.8679505 335.265475,89.3314993 340.167813,84.4291609 L352.968363,71.6286107 C357.870702,66.7262724 364.679505,64.002751 371.488308,64.002751 L413.430536,64.002751 C420.511692,64.002751 427.048143,66.7262724 431.950481,71.6286107 L444.751032,84.4291609 C449.65337,89.3314993 452.376891,95.8679505 452.376891,102.949106 Z M429.499312,150.883081 L429.499312,110.574966 C429.499312,103.49381 426.775791,96.957359 421.873453,92.0550206 L421.873453,92.0550206 C416.698762,87.1526823 410.162311,84.4291609 403.081155,84.4291609 L381.565337,84.4291609 C374.484182,84.4291609 367.94773,87.1526823 363.045392,92.0550206 L363.045392,92.0550206 C358.143054,96.957359 355.419532,103.766162 355.419532,110.574966 L355.419532,150.883081 C355.419532,157.964237 358.143054,164.500688 363.045392,169.403026 L363.045392,169.403026 C367.94773,174.305365 374.756534,177.028886 381.565337,177.028886 L403.081155,177.028886 C410.162311,177.028886 416.698762,174.305365 421.6011,169.403026 L421.6011,169.403026 C426.775791,164.500688 429.499312,157.691884 429.499312,150.883081 Z" id="Shape"></path>
                            <path d="M597.81293,90.69326 L597.81293,189.829436 C597.81293,194.18707 594.272352,197.727648 589.914718,197.727648 L582.56121,197.727648 C578.203576,197.727648 574.662999,194.18707 574.662999,189.829436 L574.662999,99.4085282 C574.662999,97.2297111 573.845942,95.3232462 572.211829,93.6891334 L565.130674,86.607978 C563.768913,85.2462173 561.590096,84.1568088 559.411279,84.1568088 L533.810179,84.1568088 C531.631362,84.1568088 529.724897,84.9738652 528.090784,86.607978 L507.11967,107.579092 C505.757909,108.940853 504.668501,111.11967 504.668501,113.298487 L504.668501,190.101788 C504.668501,194.459422 501.127923,198 496.770289,198 L489.416781,198 C485.059147,198 481.518569,194.459422 481.518569,190.101788 L481.518569,71.6286107 C481.518569,67.2709766 485.059147,63.7303989 489.416781,63.7303989 L494.863824,63.7303989 C499.221458,63.7303989 502.489684,66.9986245 502.762036,71.3562586 L502.762036,71.3562586 C503.034388,78.1650619 511.477304,81.4332875 516.379642,76.5309491 L527.001376,65.909216 C528.363136,64.5474553 530.541953,63.4580468 532.72077,63.4580468 L570.577717,63.4580468 C572.756534,63.4580468 574.662999,64.2751032 576.297111,65.909216 L595.361761,84.9738652 C596.995873,86.607978 597.81293,88.5144429 597.81293,90.69326 Z" id="Path"></path>
                            <path d="M641.933975,2.17881706 L641.933975,2.17881706 C648.198074,2.17881706 653.372765,7.35350757 653.372765,13.6176066 L653.372765,20.4264099 C653.372765,26.6905089 648.198074,31.8651994 641.933975,31.8651994 L641.933975,31.8651994 C635.669876,31.8651994 630.495186,26.6905089 630.495186,20.4264099 L630.495186,13.6176066 C630.495186,7.35350757 635.669876,2.17881706 641.933975,2.17881706 Z M641.933975,63.7303989 L641.933975,63.7303989 C648.198074,63.7303989 653.372765,68.9050894 653.372765,75.1691884 L653.372765,186.016506 C653.372765,192.280605 648.198074,197.455296 641.933975,197.455296 L641.933975,197.455296 C635.669876,197.455296 630.495186,192.280605 630.495186,186.016506 L630.495186,75.1691884 C630.495186,68.9050894 635.669876,63.7303989 641.933975,63.7303989 Z" id="Shape"></path>
                            <path d="M791.455296,181.114168 L777.837689,194.731774 C775.931224,196.638239 773.207703,197.727648 770.211829,197.727648 L715.741403,197.727648 C713.017882,197.727648 710.29436,196.638239 708.115543,194.731774 L686.055021,172.671252 C684.148556,170.764787 683.059147,168.041265 683.059147,165.045392 L683.059147,96.4126547 C683.059147,93.6891334 684.148556,90.9656121 686.055021,88.786795 L708.115543,66.7262724 C710.022008,64.8198074 712.74553,63.7303989 715.741403,63.7303989 L768.850069,63.7303989 C771.57359,63.7303989 774.297111,64.8198074 776.475928,66.7262724 L790.093535,80.343879 C794.178817,84.4291609 794.178817,91.2379642 790.093535,95.3232462 L790.093535,95.3232462 C786.008253,99.4085282 779.19945,99.4085282 775.114168,95.3232462 L767.215956,87.4250344 C765.309491,85.5185695 762.58597,84.4291609 759.590096,84.4291609 L726.090784,84.4291609 C723.367263,84.4291609 720.643741,85.5185695 718.464924,87.4250344 L709.477304,96.4126547 C707.570839,98.3191197 706.481431,101.042641 706.481431,104.038514 L706.481431,157.14718 C706.481431,159.870702 707.570839,162.594223 709.477304,164.77304 L718.464924,173.76066 C720.371389,175.667125 723.094911,176.756534 726.090784,176.756534 L760.951857,176.756534 C763.675378,176.756534 766.3989,175.667125 768.577717,173.76066 L776.475928,165.862448 C780.56121,161.777166 787.370014,161.777166 791.455296,165.862448 L791.455296,165.862448 C795.540578,170.220083 795.540578,177.028886 791.455296,181.114168 Z" id="Path"></path>
                            <path d="M930.899587,90.69326 L930.899587,189.829436 C930.899587,194.18707 927.35901,197.727648 923.001376,197.727648 L917.554333,197.727648 C913.196699,197.727648 909.928473,194.459422 909.656121,190.101788 L909.656121,190.101788 C909.383769,183.292985 900.940853,180.024759 896.038514,184.927098 L885.416781,195.548831 C884.055021,196.910591 881.876204,198 879.697387,198 L836.938102,198 C834.759285,198 832.85282,197.182944 831.218707,195.548831 L812.971114,177.301238 C811.609354,175.939477 810.519945,173.76066 810.519945,171.581843 L810.519945,146.797799 C810.519945,144.618982 811.337001,142.712517 812.971114,141.078404 L828.495186,125.554333 C829.856946,124.192572 831.763411,123.375516 833.669876,123.375516 L899.851444,118.74553 C903.936726,118.473177 907.204952,114.9326 907.204952,110.847318 L907.204952,99.1361761 C907.204952,96.957359 906.387895,95.0508941 904.753783,93.4167813 L897.400275,86.0632737 C896.038514,84.7015131 893.859697,83.6121045 891.68088,83.6121045 L850.283356,83.6121045 C848.104539,83.6121045 846.198074,84.4291609 844.563961,86.0632737 L834.486933,96.1403026 C831.491059,99.1361761 826.316369,99.1361761 823.320495,96.1403026 L819.507565,92.3273728 C816.511692,89.3314993 816.511692,84.1568088 819.507565,81.1609354 L834.759285,65.909216 C836.121045,64.5474553 838.299862,63.4580468 840.47868,63.4580468 L903.392022,63.4580468 C905.570839,63.4580468 907.477304,64.2751032 909.111417,65.909216 L928.176066,84.9738652 C930.082531,86.607978 930.899587,88.5144429 930.899587,90.69326 Z M907.749656,148.15956 L907.749656,147.070151 C907.749656,142.440165 903.936726,138.899587 899.30674,139.171939 L845.108666,142.984869 C843.202201,142.984869 841.295736,143.801926 840.206327,145.163686 L836.66575,148.704264 C835.303989,150.066025 834.21458,152.244842 834.21458,154.423659 L834.21458,163.683631 C834.21458,165.862448 835.031637,167.768913 836.66575,169.403026 L842.112792,174.850069 C843.474553,176.211829 845.65337,177.301238 847.832187,177.301238 L878.88033,177.301238 C881.059147,177.301238 882.965612,176.484182 884.599725,174.850069 L905.843191,153.606602 C906.9326,152.517194 907.749656,150.338377 907.749656,148.15956 Z" id="Shape"></path>
                        </g>
                    </g>
                </g>
            </g>
        </g>
    </g>
</svg>