<?xml version="1.0" encoding="UTF-8"?>
<svg width="184px" height="39px" viewBox="0 0 184 39" version="1.1" xmlns="http://www.w3.org/2000/svg" xmlns:xlink="http://www.w3.org/1999/xlink">
    <title>logo-eikonica copy</title>
    <g id="Page-1" stroke="none" stroke-width="1" fill="none" fill-rule="evenodd">
        <g id="Medium" transform="translate(-49.000000, -43.000000)" fill="#000000" fill-rule="nonzero">
            <g id="HEADER" transform="translate(-16.000000, -13.000000)">
                <g id="logo-eikonica-copy" transform="translate(65.000000, 56.000000)">
                    <path d="M23.7111417,18.9903714 L23.7111417,25.2668501 C23.7111417,26.4470426 22.7455296,27.3590096 21.6189821,27.3590096 L6.6519945,27.3590096 C5.47180193,27.3590096 4.55983494,28.3246217 4.55983494,29.4511692 L4.55983494,30.9532325 C4.55983494,31.4896836 4.77441541,32.0261348 5.14993122,32.4552957 L6.9738652,34.2792297 C7.34938102,34.6547455 7.88583219,34.869326 8.47592847,34.869326 L16.0935351,34.869326 C16.6299862,34.869326 17.1664374,34.6547455 17.5955983,34.2792297 L19.2049519,32.6698762 C20.0096286,31.8651994 21.3507565,31.8651994 22.1554333,32.6698762 L22.1554333,32.6698762 C22.96011,33.474553 22.96011,34.8156809 22.1554333,35.6203576 L19.4731774,38.3026135 C19.0976616,38.6781293 18.5612105,38.8927098 17.9711142,38.8927098 L6.43741403,38.8927098 C5.90096286,38.8927098 5.36451169,38.6781293 4.93535076,38.3026135 L0.590096286,33.957359 C0.214580468,33.5818432 0,33.045392 0,32.5089409 L0,18.9903714 C0,18.4539202 0.214580468,17.9174691 0.590096286,17.4883081 L4.93535076,13.1430536 C5.31086657,12.7675378 5.84731774,12.5529574 6.43741403,12.5529574 L17.2200825,12.5529574 C17.7565337,12.5529574 18.2929849,12.7675378 18.7221458,13.1430536 L23.0674003,17.4883081 C23.4429161,17.9174691 23.7111417,18.4539202 23.7111417,18.9903714 Z M19.1513067,21.2971114 L19.1513067,20.4924347 C19.1513067,19.9559835 18.9367263,19.4195323 18.5612105,18.9903714 L16.6836314,17.1664374 C16.3081155,16.7909216 15.7716644,16.5763411 15.1815681,16.5763411 L8.47592847,16.5763411 C7.9394773,16.5763411 7.40302613,16.7909216 6.9738652,17.1664374 L5.14993122,18.9903714 C4.77441541,19.3658872 4.55983494,19.9023384 4.55983494,20.4924347 L4.55983494,21.2971114 C4.55983494,22.477304 5.52544704,23.389271 6.6519945,23.389271 L17.0591472,23.389271 C18.1856946,23.4429161 19.1513067,22.477304 19.1513067,21.2971114 Z" id="Shape"></path>
                    <path d="M31.4360385,0.429160935 L31.4360385,0.429160935 C32.6698762,0.429160935 33.6891334,1.44841816 33.6891334,2.68225585 L33.6891334,4.02338377 C33.6891334,5.25722146 32.6698762,6.27647868 31.4360385,6.27647868 L31.4360385,6.27647868 C30.2022008,6.27647868 29.1829436,5.25722146 29.1829436,4.02338377 L29.1829436,2.68225585 C29.1292985,1.44841816 30.1485557,0.429160935 31.4360385,0.429160935 Z M31.4360385,12.5529574 L31.4360385,12.5529574 C32.6698762,12.5529574 33.6891334,13.5722146 33.6891334,14.8060523 L33.6891334,36.6396149 C33.6891334,37.8734525 32.6698762,38.8927098 31.4360385,38.8927098 L31.4360385,38.8927098 C30.2022008,38.8927098 29.1829436,37.8734525 29.1829436,36.6396149 L29.1829436,14.8060523 C29.1292985,13.5722146 30.1485557,12.5529574 31.4360385,12.5529574 Z" id="Shape"></path>
                    <path d="M56.8638239,38.3026135 L48.6024759,29.8803301 C47.3149931,28.5392022 45.0618982,29.5048143 45.0618982,31.3287483 L45.0618982,36.9078404 C45.0618982,38.0343879 44.1499312,38.9463549 43.0233838,38.9463549 L42.5942228,38.9463549 C41.4676754,38.9463549 40.5557084,38.0343879 40.5557084,36.9078404 L40.5557084,2.03851444 C40.5557084,0.911966988 41.4676754,0 42.5942228,0 L43.0233838,0 C44.1499312,0 45.0618982,0.911966988 45.0618982,2.03851444 L45.0618982,19.741403 C45.0618982,21.565337 47.3149931,22.5309491 48.6024759,21.1898212 L56.4883081,13.1430536 C56.8638239,12.7675378 57.4002751,12.4993122 57.9367263,12.4993122 L57.9367263,12.4993122 C59.7606602,12.4993122 60.6726272,14.698762 59.3851444,15.9862448 L51.6602476,23.9257221 C50.8555708,24.7303989 50.8555708,26.0178817 51.6602476,26.8225585 L60.1898212,35.4057772 C61.477304,36.69326 60.565337,38.8927098 58.741403,38.8927098 L58.3658872,38.8927098 C57.7757909,38.9463549 57.2929849,38.7317744 56.8638239,38.3026135 Z" id="Path"></path>
                    <path d="M89.1045392,20.2778542 L89.1045392,31.221458 C89.1045392,32.6162311 88.568088,33.9037139 87.6024759,34.869326 L85.0811554,37.3906465 C84.1155433,38.3562586 82.7744154,38.8927098 81.4332875,38.8927098 L73.1719395,38.8927098 C71.7771664,38.8927098 70.4896836,38.3562586 69.5240715,37.3906465 L67.002751,34.869326 C66.0371389,33.9037139 65.5006878,32.562586 65.5006878,31.221458 L65.5006878,20.2778542 C65.5006878,18.8830812 66.0371389,17.5955983 67.002751,16.6299862 L69.5240715,14.1086657 C70.4896836,13.1430536 71.8308116,12.6066025 73.1719395,12.6066025 L81.4332875,12.6066025 C82.8280605,12.6066025 84.1155433,13.1430536 85.0811554,14.1086657 L87.6024759,16.6299862 C88.568088,17.5955983 89.1045392,18.8830812 89.1045392,20.2778542 Z M84.5983494,29.7193948 L84.5983494,21.7799175 C84.5983494,20.3851444 84.0618982,19.0976616 83.0962861,18.1320495 L83.0962861,18.1320495 C82.0770289,17.1664374 80.7895461,16.6299862 79.394773,16.6299862 L75.1568088,16.6299862 C73.7620358,16.6299862 72.474553,17.1664374 71.5089409,18.1320495 L71.5089409,18.1320495 C70.5433287,19.0976616 70.0068776,20.4387895 70.0068776,21.7799175 L70.0068776,29.7193948 C70.0068776,31.1141678 70.5433287,32.4016506 71.5089409,33.3672627 L71.5089409,33.3672627 C72.474553,34.3328748 73.8156809,34.869326 75.1568088,34.869326 L79.394773,34.869326 C80.7895461,34.869326 82.0770289,34.3328748 83.042641,33.3672627 L83.042641,33.3672627 C84.0618982,32.4016506 84.5983494,31.0605227 84.5983494,29.7193948 Z" id="Shape"></path>
                    <path d="M117.751032,17.8638239 L117.751032,37.3906465 C117.751032,38.2489684 117.053645,38.9463549 116.195323,38.9463549 L114.746905,38.9463549 C113.888583,38.9463549 113.191197,38.2489684 113.191197,37.3906465 L113.191197,19.5804677 C113.191197,19.1513067 113.030261,18.7757909 112.708391,18.4539202 L111.313618,17.0591472 C111.045392,16.7909216 110.616231,16.5763411 110.18707,16.5763411 L105.144429,16.5763411 C104.715268,16.5763411 104.339752,16.7372765 104.017882,17.0591472 L99.8872077,21.1898212 C99.6189821,21.4580468 99.4044017,21.8872077 99.4044017,22.3163686 L99.4044017,37.4442916 C99.4044017,38.3026135 98.7070151,39 97.8486933,39 L96.4002751,39 C95.5419532,39 94.8445667,38.3026135 94.8445667,37.4442916 L94.8445667,14.1086657 C94.8445667,13.2503439 95.5419532,12.5529574 96.4002751,12.5529574 L97.4731774,12.5529574 C98.3314993,12.5529574 98.9752407,13.1966988 99.0288858,14.0550206 L99.0288858,14.0550206 C99.0825309,15.3961486 100.74553,16.03989 101.711142,15.0742779 L103.803301,12.9821183 C104.071527,12.7138927 104.500688,12.4993122 104.929849,12.4993122 L112.38652,12.4993122 C112.815681,12.4993122 113.191197,12.6602476 113.513067,12.9821183 L117.268226,16.7372765 C117.590096,17.0591472 117.751032,17.434663 117.751032,17.8638239 Z" id="Path"></path>
                    <path d="M126.441541,0.429160935 L126.441541,0.429160935 C127.675378,0.429160935 128.694635,1.44841816 128.694635,2.68225585 L128.694635,4.02338377 C128.694635,5.25722146 127.675378,6.27647868 126.441541,6.27647868 L126.441541,6.27647868 C125.207703,6.27647868 124.188446,5.25722146 124.188446,4.02338377 L124.188446,2.68225585 C124.188446,1.44841816 125.207703,0.429160935 126.441541,0.429160935 Z M126.441541,12.5529574 L126.441541,12.5529574 C127.675378,12.5529574 128.694635,13.5722146 128.694635,14.8060523 L128.694635,36.6396149 C128.694635,37.8734525 127.675378,38.8927098 126.441541,38.8927098 L126.441541,38.8927098 C125.207703,38.8927098 124.188446,37.8734525 124.188446,36.6396149 L124.188446,14.8060523 C124.188446,13.5722146 125.207703,12.5529574 126.441541,12.5529574 Z" id="Shape"></path>
                    <path d="M155.89271,35.6740028 L153.210454,38.3562586 C152.834938,38.7317744 152.298487,38.9463549 151.708391,38.9463549 L140.979367,38.9463549 C140.442916,38.9463549 139.906465,38.7317744 139.477304,38.3562586 L135.13205,34.0110041 C134.756534,33.6354883 134.541953,33.0990371 134.541953,32.5089409 L134.541953,18.9903714 C134.541953,18.4539202 134.756534,17.9174691 135.13205,17.4883081 L139.477304,13.1430536 C139.85282,12.7675378 140.389271,12.5529574 140.979367,12.5529574 L151.440165,12.5529574 C151.976616,12.5529574 152.513067,12.7675378 152.942228,13.1430536 L155.624484,15.8253095 C156.429161,16.6299862 156.429161,17.9711142 155.624484,18.7757909 L155.624484,18.7757909 C154.819807,19.5804677 153.47868,19.5804677 152.674003,18.7757909 L151.118294,17.2200825 C150.742779,16.8445667 150.206327,16.6299862 149.616231,16.6299862 L143.017882,16.6299862 C142.481431,16.6299862 141.944979,16.8445667 141.515818,17.2200825 L139.74553,18.9903714 C139.370014,19.3658872 139.155433,19.9023384 139.155433,20.4924347 L139.155433,30.9532325 C139.155433,31.4896836 139.370014,32.0261348 139.74553,32.4552957 L141.515818,34.2255846 C141.891334,34.6011004 142.427785,34.8156809 143.017882,34.8156809 L149.884457,34.8156809 C150.420908,34.8156809 150.957359,34.6011004 151.38652,34.2255846 L152.942228,32.6698762 C153.746905,31.8651994 155.088033,31.8651994 155.89271,32.6698762 L155.89271,32.6698762 C156.697387,33.5281981 156.697387,34.869326 155.89271,35.6740028 Z" id="Path"></path>
                    <path d="M183.35901,17.8638239 L183.35901,37.3906465 C183.35901,38.2489684 182.661623,38.9463549 181.803301,38.9463549 L180.730399,38.9463549 C179.872077,38.9463549 179.228336,38.3026135 179.174691,37.4442916 L179.174691,37.4442916 C179.121045,36.1031637 177.458047,35.4594223 176.492435,36.4250344 L174.400275,38.5171939 C174.13205,38.7854195 173.702889,39 173.273728,39 L164.851444,39 C164.422283,39 164.046768,38.8390646 163.724897,38.5171939 L160.130674,34.9229711 C159.862448,34.6547455 159.647868,34.2255846 159.647868,33.7964237 L159.647868,28.914718 C159.647868,28.4855571 159.808803,28.1100413 160.130674,27.7881706 L163.188446,24.7303989 C163.456671,24.4621733 163.832187,24.301238 164.207703,24.301238 L177.243466,23.389271 C178.048143,23.3356259 178.691884,22.6382393 178.691884,21.8335626 L178.691884,19.5268226 C178.691884,19.0976616 178.530949,18.7221458 178.209078,18.4002751 L176.76066,16.9518569 C176.492435,16.6836314 176.063274,16.4690509 175.634113,16.4690509 L167.480055,16.4690509 C167.050894,16.4690509 166.675378,16.6299862 166.353508,16.9518569 L164.368638,18.9367263 C163.778542,19.5268226 162.759285,19.5268226 162.169188,18.9367263 L161.418157,18.1856946 C160.828061,17.5955983 160.828061,16.5763411 161.418157,15.9862448 L164.422283,12.9821183 C164.690509,12.7138927 165.11967,12.4993122 165.548831,12.4993122 L177.940853,12.4993122 C178.370014,12.4993122 178.74553,12.6602476 179.0674,12.9821183 L182.822558,16.7372765 C183.198074,17.0591472 183.35901,17.434663 183.35901,17.8638239 Z M178.799175,29.1829436 L178.799175,28.9683631 C178.799175,28.0563961 178.048143,27.3590096 177.136176,27.4126547 L166.460798,28.1636864 C166.085282,28.1636864 165.709766,28.3246217 165.495186,28.5928473 L164.797799,29.2902338 C164.529574,29.5584594 164.314993,29.9876204 164.314993,30.4167813 L164.314993,32.2407153 C164.314993,32.6698762 164.475928,33.045392 164.797799,33.3672627 L165.870702,34.4401651 C166.138927,34.7083906 166.568088,34.9229711 166.997249,34.9229711 L173.112792,34.9229711 C173.541953,34.9229711 173.917469,34.7620358 174.23934,34.4401651 L178.423659,30.2558459 C178.638239,30.0412655 178.799175,29.6121045 178.799175,29.1829436 Z" id="Shape"></path>
                </g>
            </g>
        </g>
    </g>
</svg>