<?xml version="1.0" encoding="UTF-8"?>
<svg width="185px" height="41px" viewBox="0 0 185 41" version="1.1" xmlns="http://www.w3.org/2000/svg" xmlns:xlink="http://www.w3.org/1999/xlink">
    <title>eikonica</title>
    <g id="Page-1" stroke="none" stroke-width="1" fill="none" fill-rule="evenodd">
        <g id="Medium" transform="translate(-48.000000, -42.000000)" fill="#000000" fill-rule="nonzero">
            <g id="HEADER" transform="translate(-16.000000, -13.000000)">
                <g id="eikonica" transform="translate(64.692572, 55.960750)">
                    <path d="M23.7940316,19.0567583 L23.7940316,25.3551785 C23.7940316,26.5394968 22.8250439,27.4546518 21.6945582,27.4546518 L6.6752487,27.4546518 C5.49093037,27.4546518 4.5757753,28.4236395 4.5757753,29.5541252 L4.5757753,31.0614394 C4.5757753,31.5997659 4.79110591,32.1380924 5.16793446,32.5687536 L6.99824458,34.3990638 C7.37507316,34.7758923 7.91339965,34.9912229 8.50555883,34.9912229 L16.1497952,34.9912229 C16.6881217,34.9912229 17.2264482,34.7758923 17.6571094,34.3990638 L19.2720889,32.7840843 C20.0795787,31.9765945 21.425395,31.9765945 22.2328847,32.7840843 L22.2328847,32.7840843 C23.0403745,33.591574 23.0403745,34.9373903 22.2328847,35.74488 L19.5412522,38.4365126 C19.1644236,38.8133411 18.6260971,39.0286717 18.0339379,39.0286717 L6.45991809,39.0286717 C5.92159155,39.0286717 5.38326506,38.8133411 4.95260386,38.4365126 L0.592159155,34.0760678 C0.215330602,33.6992393 1.42108547e-14,33.1609128 1.42108547e-14,32.6225863 L1.42108547e-14,19.0567583 C1.42108547e-14,18.5184318 0.215330602,17.9801053 0.592159155,17.5494441 L4.95260386,13.1889994 C5.32943241,12.8121709 5.86775891,12.5968402 6.45991809,12.5968402 L17.2802808,12.5968402 C17.8186073,12.5968402 18.3569339,12.8121709 18.7875951,13.1889994 L23.1480398,17.5494441 C23.5248683,17.9801053 23.7940316,18.5184318 23.7940316,19.0567583 Z M19.2182563,21.3715623 L19.2182563,20.5640725 C19.2182563,20.025746 19.0029257,19.4874196 18.6260971,19.0567583 L16.7419544,17.2264482 C16.3651258,16.8496196 15.8267993,16.634289 15.2346401,16.634289 L8.50555883,16.634289 C7.96723228,16.634289 7.42890579,16.8496196 6.99824458,17.2264482 L5.16793446,19.0567583 C4.79110591,19.4335869 4.5757753,19.9719134 4.5757753,20.5640725 L4.5757753,21.3715623 C4.5757753,22.5558806 5.54476303,23.4710357 6.6752487,23.4710357 L17.1187829,23.4710357 C18.2492685,23.5248683 19.2182563,22.5558806 19.2182563,21.3715623 Z" id="Shape"></path>
                    <path d="M31.5459333,0.430661205 L31.5459333,0.430661205 C32.7840843,0.430661205 33.8069046,1.45348157 33.8069046,2.69163253 L33.8069046,4.0374488 C33.8069046,5.27559976 32.7840843,6.29842012 31.5459333,6.29842012 L31.5459333,6.29842012 C30.3077823,6.29842012 29.284962,5.27559976 29.284962,4.0374488 L29.284962,2.69163253 C29.2311293,1.45348157 30.2539497,0.430661205 31.5459333,0.430661205 Z M31.5459333,12.5968402 L31.5459333,12.5968402 C32.7840843,12.5968402 33.8069046,13.6196606 33.8069046,14.8578116 L33.8069046,36.7677004 C33.8069046,38.0058513 32.7840843,39.0286717 31.5459333,39.0286717 L31.5459333,39.0286717 C30.3077823,39.0286717 29.284962,38.0058513 29.284962,36.7677004 L29.284962,14.8578116 C29.2311293,13.6196606 30.2539497,12.5968402 31.5459333,12.5968402 Z" id="Shape"></path>
                    <path d="M57.0626094,38.4365126 L48.7723815,29.9847864 C47.4803979,28.6389701 45.2194265,29.6079578 45.2194265,31.438268 L45.2194265,37.0368636 C45.2194265,38.1673493 44.3042715,39.0825044 43.1737858,39.0825044 L42.7431246,39.0825044 C41.612639,39.0825044 40.6974839,38.1673493 40.6974839,37.0368636 L40.6974839,2.04564073 C40.6974839,0.915155059 41.612639,0 42.7431246,0 L43.1737858,0 C44.3042715,0 45.2194265,0.915155059 45.2194265,2.04564073 L45.2194265,19.8104154 C45.2194265,21.6407256 47.4803979,22.6097133 48.7723815,21.263897 L56.685781,13.1889994 C57.0626094,12.8121709 57.6009363,12.5430076 58.1392627,12.5430076 L58.1392627,12.5430076 C59.9695727,12.5430076 60.884728,14.7501463 59.5927444,16.0421299 L51.8408426,24.0093622 C51.0333528,24.816852 51.0333528,26.1088356 51.8408426,26.9163253 L60.4002339,35.5295494 C61.6922176,36.821533 60.7770623,39.0286717 58.9467523,39.0286717 L58.5699239,39.0286717 C57.9777647,39.0825044 57.4932706,38.8671738 57.0626094,38.4365126 Z" id="Path"></path>
                    <path d="M89.4160327,20.3487419 L89.4160327,31.3306026 C89.4160327,32.7302516 88.8777063,34.0222352 87.9087187,34.9912229 L85.3785838,37.5213575 C84.4095962,38.4903452 83.0637797,39.0286717 81.7179637,39.0286717 L73.4277355,39.0286717 C72.0280867,39.0286717 70.7361031,38.4903452 69.7671155,37.5213575 L67.2369805,34.9912229 C66.2679929,34.0222352 65.7296665,32.6764189 65.7296665,31.3306026 L65.7296665,20.3487419 C65.7296665,18.949093 66.2679929,17.6571094 67.2369805,16.6881217 L69.7671155,14.1579871 C70.7361031,13.1889994 72.081919,12.6506729 73.4277355,12.6506729 L81.7179637,12.6506729 C83.1176125,12.6506729 84.4095962,13.1889994 85.3785838,14.1579871 L87.9087187,16.6881217 C88.8777063,17.6571094 89.4160327,18.949093 89.4160327,20.3487419 Z M84.8940903,29.8232885 L84.8940903,21.8560562 C84.8940903,20.4564073 84.3557633,19.1644236 83.3867757,18.1954359 L83.3867757,18.1954359 C82.3639553,17.2264482 81.0719716,16.6881217 79.6723228,16.6881217 L75.4195436,16.6881217 C74.0198948,16.6881217 72.7279111,17.2264482 71.7589235,18.1954359 L71.7589235,18.1954359 C70.7899354,19.1644236 70.251609,20.5102399 70.251609,21.8560562 L70.251609,29.8232885 C70.251609,31.2229374 70.7899354,32.514921 71.7589235,33.4839087 L71.7589235,33.4839087 C72.7279111,34.4528964 74.0737271,34.9912229 75.4195436,34.9912229 L79.6723228,34.9912229 C81.0719716,34.9912229 82.3639553,34.4528964 83.3329434,33.4839087 L83.3329434,33.4839087 C84.3557633,32.514921 84.8940903,31.1691047 84.8940903,29.8232885 Z" id="Shape"></path>
                    <path d="M118.162668,17.9262727 L118.162668,37.5213575 C118.162668,38.3826799 117.462844,39.0825044 116.601521,39.0825044 L115.14804,39.0825044 C114.286717,39.0825044 113.586893,38.3826799 113.586893,37.5213575 L113.586893,19.6489175 C113.586893,19.2182563 113.425395,18.8414277 113.102399,18.5184318 L111.70275,17.1187829 C111.433587,16.8496196 111.002926,16.634289 110.572264,16.634289 L105.511995,16.634289 C105.081334,16.634289 104.704506,16.795787 104.381509,17.1187829 L100.236395,21.263897 C99.9672322,21.5330602 99.7519018,21.9637214 99.7519018,22.3943827 L99.7519018,37.5751901 C99.7519018,38.4365126 99.0520774,39.136337 98.190755,39.136337 L96.7372733,39.136337 C95.8759509,39.136337 95.1761265,38.4365126 95.1761265,37.5751901 L95.1761265,14.1579871 C95.1761265,13.2966647 95.8759509,12.5968402 96.7372733,12.5968402 L97.8139261,12.5968402 C98.6752485,12.5968402 99.3212406,13.2428321 99.3750729,14.1041545 L99.3750729,14.1041545 C99.4289058,15.4499707 101.097718,16.0959625 102.066705,15.1269748 L104.166179,13.0275015 C104.435342,12.7583382 104.866004,12.5430076 105.296665,12.5430076 L112.779403,12.5430076 C113.210064,12.5430076 113.586893,12.7045056 113.909888,13.0275015 L117.678174,16.795787 C118.00117,17.1187829 118.162668,17.4956115 118.162668,17.9262727 Z" id="Path"></path>
                    <path d="M126.883558,0.430661205 L126.883558,0.430661205 C128.121709,0.430661205 129.144529,1.45348157 129.144529,2.69163253 L129.144529,4.0374488 C129.144529,5.27559976 128.121709,6.29842012 126.883558,6.29842012 L126.883558,6.29842012 C125.645406,6.29842012 124.622586,5.27559976 124.622586,4.0374488 L124.622586,2.69163253 C124.622586,1.45348157 125.645406,0.430661205 126.883558,0.430661205 Z M126.883558,12.5968402 L126.883558,12.5968402 C128.121709,12.5968402 129.144529,13.6196606 129.144529,14.8578116 L129.144529,36.7677004 C129.144529,38.0058513 128.121709,39.0286717 126.883558,39.0286717 L126.883558,39.0286717 C125.645406,39.0286717 124.622586,38.0058513 124.622586,36.7677004 L124.622586,14.8578116 C124.622586,13.6196606 125.645406,12.5968402 126.883558,12.5968402 Z" id="Shape"></path>
                    <path d="M156.437683,35.7987127 L153.74605,38.4903452 C153.369222,38.8671738 152.830895,39.0825044 152.238736,39.0825044 L141.472206,39.0825044 C140.933879,39.0825044 140.395553,38.8671738 139.964892,38.4903452 L135.604447,34.1299005 C135.227618,33.753072 135.012288,33.2147455 135.012288,32.6225863 L135.012288,19.0567583 C135.012288,18.5184318 135.227618,17.9801053 135.604447,17.5494441 L139.964892,13.1889994 C140.34172,12.8121709 140.880047,12.5968402 141.472206,12.5968402 L151.969573,12.5968402 C152.507899,12.5968402 153.046225,12.8121709 153.476887,13.1889994 L156.16852,15.8806319 C156.976009,16.6881217 156.976009,18.0339379 156.16852,18.8414277 L156.16852,18.8414277 C155.36103,19.6489175 154.015214,19.6489175 153.207724,18.8414277 L151.646577,17.2802808 C151.269748,16.9034523 150.731422,16.6881217 150.139263,16.6881217 L143.517846,16.6881217 C142.97952,16.6881217 142.441194,16.9034523 142.010533,17.2802808 L140.234055,19.0567583 C139.857226,19.4335869 139.641896,19.9719134 139.641896,20.5640725 L139.641896,31.0614394 C139.641896,31.5997659 139.857226,32.1380924 140.234055,32.5687536 L142.010533,34.3452311 C142.387361,34.7220597 142.925687,34.9373903 143.517846,34.9373903 L150.408426,34.9373903 C150.946752,34.9373903 151.485079,34.7220597 151.91574,34.3452311 L153.476887,32.7840843 C154.284377,31.9765945 155.630193,31.9765945 156.437683,32.7840843 L156.437683,32.7840843 C157.245172,33.6454066 157.245172,34.9912229 156.437683,35.7987127 Z" id="Path"></path>
                    <path d="M184,17.9262727 L184,37.5213575 C184,38.3826799 183.300176,39.0825044 182.438853,39.0825044 L181.3622,39.0825044 C180.500877,39.0825044 179.854886,38.4365126 179.801053,37.5751901 L179.801053,37.5751901 C179.747221,36.2293739 178.078408,35.5833821 177.109421,36.5523698 L175.009947,38.6518432 C174.740784,38.9210064 174.310123,39.136337 173.879462,39.136337 L165.427736,39.136337 C164.997074,39.136337 164.620245,38.974839 164.29725,38.6518432 L160.690462,35.0450555 C160.421299,34.7758923 160.205968,34.3452311 160.205968,33.9145699 L160.205968,29.0157987 C160.205968,28.5851375 160.367466,28.2083089 160.690462,27.885313 L163.758923,24.816852 C164.028087,24.5476887 164.404915,24.3861908 164.781743,24.3861908 L177.863078,23.4710357 C178.670567,23.4172031 179.31656,22.7173786 179.31656,21.9098888 L179.31656,19.5950848 C179.31656,19.1644236 179.155061,18.7875951 178.832065,18.4645992 L177.378584,17.0111176 C177.109421,16.7419544 176.678759,16.5266237 176.248098,16.5266237 L168.065535,16.5266237 C167.634874,16.5266237 167.258046,16.6881217 166.935049,17.0111176 L164.943241,19.0029257 C164.351082,19.5950848 163.328262,19.5950848 162.736103,19.0029257 L161.982446,18.2492685 C161.390287,17.6571094 161.390287,16.634289 161.982446,16.0421299 L164.997074,13.0275015 C165.266237,12.7583382 165.696899,12.5430076 166.12756,12.5430076 L178.562902,12.5430076 C178.993563,12.5430076 179.370392,12.7045056 179.693388,13.0275015 L183.461674,16.795787 C183.838502,17.1187829 184,17.4956115 184,17.9262727 Z M179.424225,29.284962 L179.424225,29.0696314 C179.424225,28.1544763 178.670567,27.4546518 177.755413,27.5084845 L167.042715,28.2621416 C166.665886,28.2621416 166.289058,28.4236395 166.073727,28.6928028 L165.373903,29.3926272 C165.104739,29.6617905 164.889409,30.0924517 164.889409,30.5231129 L164.889409,32.353423 C164.889409,32.7840843 165.050907,33.1609128 165.373903,33.4839087 L166.450556,34.5605617 C166.719719,34.829725 167.15038,35.0450555 167.581042,35.0450555 L173.717964,35.0450555 C174.148625,35.0450555 174.525453,34.8835576 174.848449,34.5605617 L179.047396,30.3616149 C179.262727,30.1462843 179.424225,29.7156232 179.424225,29.284962 Z" id="Shape"></path>
                </g>
            </g>
        </g>
    </g>
</svg>