<?xml version="1.0" encoding="UTF-8"?>
<svg width="331px" height="116px" viewBox="0 0 331 116" version="1.1" xmlns="http://www.w3.org/2000/svg" xmlns:xlink="http://www.w3.org/1999/xlink">
    <title>loterie_romande_black</title>
    <g id="Page-1" stroke="none" stroke-width="1" fill="none" fill-rule="evenodd">
        <g id="Medium" transform="translate(-1090.000000, -3909.000000)" fill="#000000" fill-rule="nonzero">
            <g id="FOOTER-Copy" transform="translate(-76.832187, 3851.054798)">
                <g id="loterie_romande_black" transform="translate(1167.817615, 58.461451)">
                    <path d="M24.1523279,52.3203441 C24.1523279,39.5748988 34.3952429,29.1573887 47.0242915,29.1573887 C59.6533401,29.1573887 69.9544534,39.5748988 69.9544534,52.3203441 C69.9544534,65.0657895 59.6533401,75.4253439 47.0242915,75.4253439 C34.4534413,75.4832996 24.1523279,65.0657895 24.1523279,52.3203441 Z M329.926619,0 L329.926619,115 L0,115 L0,0 L329.926619,0 Z M10.8830972,44.9291498 C10.8830972,64.9493927 27.062247,81.1867409 47.0824899,81.1867409 C67.1027328,81.1867409 83.2818826,64.9493927 83.2818826,44.9291498 C83.2818826,24.8507085 67.1027328,8.61336032 47.0824899,8.61336032 C27.062247,8.61336032 10.8830972,24.8507085 10.8830972,44.9291498 Z M2.50253036,18.6234818 C6.22722672,12.2216599 11.3486842,6.75101215 17.3431174,2.50253036 L2.50253036,2.50253036 L2.50253036,18.6234818 Z M327.424089,2.50253036 L76.8218623,2.50253036 C90.1492915,11.8724696 98.8208502,27.3532389 98.8208502,44.9291498 C98.8208502,73.562753 75.6578947,96.7839069 47.0824899,96.7839069 C28.1098178,96.7839069 11.5232794,86.5409919 2.50253036,71.2348178 L2.50253036,112.49747 L327.424089,112.49747 L327.424089,2.50253036 Z M146.776316,23.2211538 L155.913462,23.2211538 L155.913462,42.3684211 L164.876012,42.3684211 L164.876012,50.167004 L146.776316,50.167004 L146.776316,23.2211538 L146.776316,23.2211538 Z M168.19332,36.548583 C168.19332,34.3952429 168.600709,32.416498 169.357287,30.6705466 C170.113866,28.9245951 171.161437,27.4696356 172.5,26.2474696 C173.838563,25.0253036 175.409919,24.0941296 177.272267,23.4539474 C179.076417,22.8137652 181.055162,22.4645749 183.208502,22.4645749 C185.361842,22.4645749 187.340587,22.8137652 189.144737,23.4539474 C190.948887,24.0941296 192.578441,25.083502 193.917004,26.2474696 C195.255567,27.4696356 196.303138,28.9245951 197.059717,30.6705466 C197.816296,32.416498 198.223684,34.3952429 198.223684,36.548583 C198.223684,38.7019231 197.816296,40.680668 197.059717,42.4848178 C196.303138,44.2889676 195.255567,45.8021255 193.917004,47.0242915 C192.578441,48.3046559 191.007085,49.23583 189.144737,49.9342105 C187.340587,50.6325911 185.303644,50.9817814 183.208502,50.9817814 C181.055162,50.9817814 179.076417,50.6325911 177.272267,49.9342105 C175.468117,49.23583 173.838563,48.3046559 172.5,47.0242915 C171.161437,45.7439271 170.113866,44.2307692 169.357287,42.4848178 C168.600709,40.680668 168.19332,38.7019231 168.19332,36.548583 Z M177.854251,36.548583 C177.854251,37.4215587 177.970648,38.236336 178.26164,38.992915 C178.552632,39.7494939 178.901822,40.3896761 179.367409,40.9134615 C179.832996,41.437247 180.41498,41.8446356 181.055162,42.1356275 C181.695344,42.4266194 182.451923,42.6012146 183.208502,42.6012146 C183.965081,42.6012146 184.663462,42.4848178 185.303644,42.1356275 C185.943826,41.8446356 186.52581,41.437247 186.991397,40.9134615 C187.456984,40.3896761 187.864372,39.7494939 188.097166,38.992915 C188.388158,38.236336 188.504555,37.4215587 188.504555,36.548583 C188.504555,35.6756073 188.388158,34.9190283 188.097166,34.1624494 C187.806174,33.4640688 187.456984,32.8238866 186.991397,32.3582996 C186.52581,31.8927126 185.943826,31.4853239 185.303644,31.194332 C184.663462,30.9033401 183.965081,30.7869433 183.208502,30.7869433 C182.451923,30.7869433 181.753543,30.9033401 181.055162,31.194332 C180.41498,31.4853239 179.832996,31.8927126 179.367409,32.3582996 C178.901822,32.8238866 178.552632,33.4640688 178.26164,34.1624494 C178.028846,34.9190283 177.854251,35.6756073 177.854251,36.548583 Z M216.905364,50.2252024 L207.826417,50.2252024 L207.826417,30.8451417 L201.191802,30.8451417 L201.191802,23.2211538 L223.53998,23.2211538 L223.53998,30.8451417 L216.905364,30.8451417 L216.905364,50.2252024 Z M228.54504,23.2211538 L247.110324,23.2211538 L247.110324,30.7869433 L237.100202,30.7869433 L237.100202,33.1148785 L246.52834,33.1148785 L246.52834,40.1568826 L237.100202,40.1568826 L237.100202,42.659413 L247.808704,42.659413 L247.808704,50.2252024 L228.603239,50.2252024 L228.603239,23.2211538 L228.54504,23.2211538 Z M253.803138,23.2211538 L265.442814,23.2211538 C266.781377,23.2211538 268.061741,23.3375506 269.400304,23.6285425 C270.738866,23.9195344 271.902834,24.3851215 272.892206,25.0253036 C273.939777,25.7236842 274.754555,26.5966599 275.394737,27.7606275 C276.034919,28.8663968 276.325911,30.3213563 276.325911,32.0091093 C276.325911,33.638664 275.918522,35.0936235 275.103745,36.3739879 C274.288968,37.6543522 273.125,38.5855263 271.611842,39.2839069 L278.479251,50.2252024 L268.061741,50.2252024 L262.882085,40.5642713 L262.591093,40.5642713 L262.591093,50.2252024 L253.803138,50.2252024 L253.803138,23.2211538 L253.803138,23.2211538 Z M262.532895,34.6280364 L264.337045,34.6280364 C264.628036,34.6280364 264.977227,34.6280364 265.326417,34.5698381 C265.675607,34.5116397 266.024798,34.3952429 266.373988,34.2206478 C266.66498,34.0460526 266.955972,33.8132591 267.188765,33.5222672 C267.421559,33.2312753 267.537955,32.8238866 267.537955,32.3582996 C267.537955,31.8927126 267.421559,31.4853239 267.246964,31.194332 C267.072368,30.9033401 266.839575,30.7287449 266.548583,30.5541498 C266.257591,30.437753 265.966599,30.3213563 265.675607,30.2631579 C265.326417,30.2049595 265.035425,30.2049595 264.744433,30.2049595 L262.591093,30.2049595 L262.591093,34.6280364 L262.532895,34.6280364 Z M281.854757,23.2211538 L290.991903,23.2211538 L290.991903,50.2252024 L281.854757,50.2252024 L281.854757,23.2211538 Z M296.753543,23.2211538 L315.318826,23.2211538 L315.318826,30.7869433 L305.308704,30.7869433 L305.308704,33.1148785 L314.736842,33.1148785 L314.736842,40.1568826 L305.308704,40.1568826 L305.308704,42.659413 L316.017206,42.659413 L316.017206,50.2252024 L296.811741,50.2252024 L296.811741,23.2211538 L296.753543,23.2211538 Z M106.38664,62.6214575 L117.968117,62.6214575 C119.30668,62.6214575 120.587045,62.7378543 121.925607,63.0288462 C123.205972,63.3198381 124.369939,63.7854251 125.41751,64.4256073 C126.465081,65.1239879 127.279858,65.9969636 127.92004,67.1609312 C128.560223,68.2667004 128.851215,69.7216599 128.851215,71.409413 C128.851215,73.0389676 128.443826,74.4939271 127.629049,75.7742915 C126.814271,77.0546559 125.650304,77.98583 124.137146,78.6842105 L130.946356,89.6255061 L120.528846,89.6255061 L115.34919,80.0227733 L115.058198,80.0227733 L115.058198,89.6255061 L106.270243,89.6255061 L106.270243,62.6214575 L106.38664,62.6214575 Z M115.116397,73.9701417 L116.862348,73.9701417 C117.15334,73.9701417 117.50253,73.9701417 117.851721,73.9119433 C118.200911,73.8537449 118.550101,73.7373482 118.841093,73.562753 C119.132085,73.3881579 119.423077,73.1553644 119.65587,72.8643725 C119.888664,72.5733806 119.946862,72.1659919 119.946862,71.7004049 C119.946862,71.2348178 119.830466,70.8274291 119.65587,70.5364372 C119.481275,70.2454453 119.248482,70.0708502 118.95749,69.8962551 C118.666498,69.7798583 118.375506,69.6634615 118.026316,69.6052632 C117.677126,69.5470648 117.386134,69.5470648 117.095142,69.5470648 L114.941802,69.5470648 L114.941802,73.9701417 L115.116397,73.9701417 Z M132.459514,75.9488866 C132.459514,73.7955466 132.866903,71.875 133.623482,70.1290486 C134.380061,68.3830972 135.427632,66.9281377 136.766194,65.7059717 C138.104757,64.4838057 139.676113,63.5526316 141.480263,62.9124494 C143.284413,62.2722672 145.321356,61.9230769 147.416498,61.9230769 C149.569838,61.9230769 151.548583,62.2722672 153.352733,62.9124494 C155.156883,63.5526316 156.786437,64.4838057 158.125,65.7059717 C159.463563,66.9281377 160.511134,68.3830972 161.267713,70.1290486 C162.024291,71.875 162.43168,73.7955466 162.43168,75.9488866 C162.43168,78.1022267 162.024291,80.0809717 161.267713,81.8269231 C160.511134,83.6310729 159.463563,85.1442308 158.125,86.3663968 C156.786437,87.6467611 155.215081,88.5779352 153.352733,89.2763158 C151.548583,89.9746964 149.569838,90.3238866 147.416498,90.3238866 C145.263158,90.3238866 143.284413,89.9746964 141.480263,89.2763158 C139.676113,88.5779352 138.104757,87.6467611 136.766194,86.3663968 C135.427632,85.0860324 134.380061,83.5728745 133.623482,81.8269231 C132.808704,80.0809717 132.459514,78.1022267 132.459514,75.9488866 Z M142.062247,75.9488866 C142.062247,76.8218623 142.178644,77.6366397 142.469636,78.3932186 C142.760628,79.1497976 143.109818,79.7899798 143.575405,80.3137652 C144.040992,80.8375506 144.622976,81.2449393 145.263158,81.5359312 C145.90334,81.8269231 146.659919,82.0015182 147.416498,82.0015182 C148.173077,82.0015182 148.871457,81.8269231 149.51164,81.5359312 C150.151822,81.2449393 150.733806,80.8375506 151.199393,80.3137652 C151.66498,79.7899798 152.072368,79.1497976 152.305162,78.3932186 C152.537955,77.6366397 152.712551,76.8218623 152.712551,75.9488866 C152.712551,75.0759109 152.596154,74.319332 152.305162,73.562753 C152.01417,72.8643725 151.66498,72.2241903 151.199393,71.7586032 C150.733806,71.2930162 150.151822,70.8856275 149.51164,70.5946356 C148.871457,70.3036437 148.173077,70.187247 147.416498,70.187247 C146.659919,70.187247 145.961538,70.3036437 145.263158,70.5946356 C144.622976,70.8856275 144.040992,71.2930162 143.575405,71.7586032 C143.109818,72.2823887 142.760628,72.8643725 142.469636,73.562753 C142.178644,74.2611336 142.062247,75.0759109 142.062247,75.9488866 Z M174.245951,74.319332 L174.65334,89.5673077 L166.214575,89.5673077 L166.214575,62.6214575 L178.087045,62.6214575 L182.975709,77.1128543 L183.150304,77.1128543 L187.398785,62.6214575 L199.620445,62.6214575 L199.620445,89.5673077 L190.774291,89.5673077 L191.065283,74.4357287 L190.83249,74.3775304 L185.827429,89.5673077 L179.425607,89.5673077 L174.478745,74.319332 L174.245951,74.319332 L174.245951,74.319332 Z M213.413462,62.6214575 L223.016194,62.6214575 L233.491903,89.5673077 L223.656377,89.5673077 L222.259615,85.6098178 L213.704453,85.6098178 L212.365891,89.5673077 L202.763158,89.5673077 L213.413462,62.6214575 Z M218.069332,71.9913968 L215.857794,78.6842105 L220.222672,78.6842105 L218.069332,71.9913968 Z M236.751012,62.6214575 L245.771761,62.6214575 L253.453947,76.2980769 L253.628543,76.2980769 L253.279352,62.6214575 L261.892713,62.6214575 L261.892713,89.5673077 L252.580972,89.5673077 L245.131579,76.7054656 L244.956984,76.7054656 L245.364372,89.5673077 L236.751012,89.5673077 L236.751012,62.6214575 L236.751012,62.6214575 Z M266.839575,89.5673077 L266.839575,62.6214575 L276.907895,62.6214575 C279.061235,62.6214575 281.098178,62.854251 283.018725,63.2616397 C284.939271,63.6690283 286.685223,64.4256073 288.140182,65.4149798 C289.65334,66.4625506 290.817308,67.8011134 291.690283,69.4888664 C292.563259,71.1766194 293.028846,73.3299595 293.028846,75.8906883 C293.028846,78.2768219 292.621457,80.3137652 291.748482,82.0015182 C290.875506,83.7474696 289.769737,85.1442308 288.314777,86.25 C286.918016,87.3557692 285.230263,88.1705466 283.426113,88.694332 C281.563765,89.2181174 279.643219,89.5091093 277.664474,89.5091093 L266.839575,89.5091093 L266.839575,89.5673077 Z M275.569332,70.3036437 L275.569332,81.7687247 L277.257085,81.7687247 C279.410425,81.7687247 281.03998,81.3031377 282.145749,80.3719636 C283.309717,79.4407895 283.833502,77.9276316 283.833502,75.8324899 C283.833502,74.0865385 283.251518,72.7479757 282.145749,71.7586032 C280.981781,70.7692308 279.468623,70.3036437 277.548077,70.3036437 L275.569332,70.3036437 L275.569332,70.3036437 Z M296.811741,62.6214575 L315.318826,62.6214575 L315.318826,70.1290486 L305.308704,70.1290486 L305.308704,72.4569838 L314.678644,72.4569838 L314.678644,79.4989879 L305.308704,79.4989879 L305.308704,82.0015182 L316.017206,82.0015182 L316.017206,89.5091093 L296.811741,89.5091093 L296.811741,62.6214575 Z" id="Shape"></path>
                </g>
            </g>
        </g>
    </g>
</svg>